<svg width="475" height="382" viewBox="0 0 475 382" fill="none" xmlns="http://www.w3.org/2000/svg">
<path d="M365.73 153.864C377.984 233.323 323.545 308.21 244.131 321.127C164.718 334.044 90.4083 280.098 78.1536 200.639C65.8989 121.181 120.338 46.2929 199.752 33.376C279.166 20.4591 353.475 74.4053 365.73 153.864Z" fill="url(#paint0_linear_343_24)" stroke="#4F4F4F" stroke-width="5.20252"/>
<path d="M222.043 138.815L222.043 138.814C220.124 136.762 219.135 135.638 218.611 134.986C218.35 134.661 218.208 134.458 218.126 134.319C218.048 134.186 218.023 134.112 217.998 134.036C217.703 133.077 217.775 132.032 218.198 131.125C218.621 130.218 219.36 129.524 220.255 129.186C221.149 128.849 222.131 128.894 222.992 129.313C223.853 129.732 224.526 130.492 224.865 131.434L224.865 131.434C224.89 131.51 224.915 131.585 224.932 131.74C224.951 131.903 224.961 132.156 224.951 132.584C224.93 133.44 224.828 134.976 224.554 137.855L224.554 137.857C224.528 138.156 224.421 138.439 224.247 138.674C224.074 138.909 223.841 139.085 223.578 139.182L223.577 139.183C223.427 139.239 223.271 139.271 223.113 139.277C222.915 139.281 222.718 139.243 222.534 139.164C222.35 139.085 222.183 138.966 222.043 138.815ZM222.988 132.106L222.988 132.074L222.976 132.044C222.811 131.634 222.503 131.303 222.111 131.121C221.719 130.94 221.275 130.924 220.87 131.076C220.662 131.154 220.47 131.274 220.307 131.43C220.144 131.586 220.013 131.774 219.919 131.983C219.742 132.37 219.707 132.811 219.82 133.222L219.827 133.248L219.841 133.271C220.053 133.596 220.852 134.54 222.432 136.245L222.701 136.535L222.736 136.139C222.947 133.741 222.996 132.495 222.988 132.106Z" fill="#B57E3D" stroke="#262626" stroke-width="0.350802"/>
<path d="M177.527 132.044L177.527 132.044L177.519 132.044C177.401 132.053 177.282 132.041 177.167 132.009C176.257 131.754 175.474 131.134 174.988 130.275C174.501 129.416 174.35 128.388 174.568 127.409C174.786 126.43 175.354 125.58 176.15 125.038C176.944 124.496 177.904 124.302 178.826 124.494C178.898 124.512 178.969 124.529 179.099 124.596C179.238 124.667 179.443 124.792 179.778 125.03C180.447 125.507 181.612 126.419 183.752 128.203C183.969 128.388 184.134 128.634 184.225 128.915C184.316 129.197 184.33 129.501 184.266 129.791C184.201 130.082 184.061 130.346 183.861 130.554C183.663 130.762 183.414 130.906 183.144 130.97C179.332 131.836 178.054 132.03 177.527 132.044ZM176.373 127.839L176.373 127.84C176.278 128.273 176.341 128.729 176.553 129.114C176.764 129.499 177.108 129.787 177.517 129.916L177.548 129.926L177.581 129.924C177.957 129.899 179.125 129.697 181.348 129.211L181.703 129.133L181.423 128.904C179.638 127.44 178.673 126.714 178.348 126.522L178.322 126.506L178.292 126.5C178.186 126.48 178.078 126.471 177.97 126.473L177.969 126.473C177.595 126.484 177.236 126.625 176.948 126.873C176.659 127.121 176.458 127.461 176.373 127.839Z" fill="#B57E3D" stroke="#262626" stroke-width="0.350802"/>
<path d="M178.683 159.631L178.683 159.631L178.688 159.628C178.754 159.59 178.818 159.552 178.927 159.452C179.043 159.345 179.21 159.165 179.472 158.839C179.997 158.187 180.888 156.969 182.496 154.623C182.66 154.381 182.756 154.094 182.773 153.796C182.791 153.498 182.728 153.201 182.592 152.94C182.457 152.68 182.255 152.467 182.012 152.325C181.769 152.183 181.493 152.118 181.217 152.135C178.49 152.329 177.044 152.478 176.244 152.598C175.844 152.659 175.612 152.711 175.464 152.757C175.324 152.8 175.26 152.837 175.194 152.876L175.192 152.877C174.479 153.294 173.916 153.953 173.595 154.75C173.274 155.547 173.215 156.435 173.427 157.27C173.639 158.105 174.109 158.838 174.761 159.352C175.413 159.865 176.208 160.131 177.02 160.109L177.02 160.109L177.023 160.108L178.683 159.631ZM178.683 159.631C178.173 159.929 177.604 160.093 177.023 160.108L178.683 159.631ZM175.331 155.769L175.33 155.769C175.241 156.094 175.241 156.438 175.332 156.761C175.423 157.085 175.601 157.374 175.846 157.594C176.091 157.814 176.392 157.955 176.714 157.999C177.036 158.043 177.363 157.988 177.656 157.84L177.684 157.826L177.705 157.803C177.968 157.523 178.715 156.543 180.067 154.61L180.28 154.306L179.911 154.335C177.646 154.515 176.469 154.658 176.104 154.745L176.073 154.752L176.047 154.77C175.699 155.001 175.446 155.357 175.331 155.769Z" fill="#B57E3D" stroke="#262626" stroke-width="0.350802"/>
<path d="M262.707 162.591L262.706 162.591C262.042 162.61 261.386 162.435 260.809 162.086C260.232 161.737 259.756 161.226 259.434 160.607C258.969 159.711 258.861 158.654 259.132 157.669C259.403 156.684 260.032 155.854 260.876 155.359L260.878 155.358C260.944 155.319 261.008 155.282 261.148 155.239C261.296 155.193 261.529 155.14 261.929 155.079C262.729 154.958 264.175 154.81 266.9 154.618C267.177 154.6 267.452 154.666 267.695 154.807C267.939 154.949 268.14 155.162 268.276 155.423C268.411 155.683 268.474 155.98 268.457 156.278C268.44 156.577 268.343 156.863 268.179 157.105C266.572 159.45 265.679 160.667 265.155 161.318C264.892 161.644 264.725 161.824 264.609 161.931C264.501 162.031 264.437 162.068 264.372 162.106L264.366 162.11L264.365 162.11C263.856 162.411 263.287 162.576 262.707 162.591ZM261.787 157.228L261.649 157.261L261.65 157.32C261.344 157.567 261.128 157.917 261.038 158.31C260.941 158.735 260.996 159.182 261.195 159.564C261.394 159.947 261.723 160.24 262.119 160.382C262.516 160.523 262.949 160.503 263.334 160.325L263.365 160.31L263.389 160.285C263.652 160.001 264.398 159.026 265.75 157.093L265.963 156.788L265.594 156.818C263.33 156.997 262.153 157.141 261.787 157.228Z" fill="#B57E3D" stroke="#262626" stroke-width="0.350802"/>
<path d="M208.023 152.455C208.345 152.428 208.653 152.304 208.91 152.098C209.166 151.892 209.36 151.614 209.47 151.298C209.58 150.981 209.601 150.639 209.531 150.311C209.462 149.984 209.304 149.684 209.076 149.447L209.055 149.425L209.027 149.412C208.688 149.245 207.566 148.847 205.4 148.175L205.037 148.063L205.186 148.412C206.114 150.599 206.641 151.719 206.84 152.049L206.856 152.074L206.878 152.093C207.202 152.359 207.61 152.489 208.023 152.455ZM208.023 152.455C208.023 152.455 208.023 152.455 208.023 152.455L208.01 152.28L208.023 152.455C208.023 152.455 208.023 152.455 208.023 152.455ZM203.038 146.217L203.038 146.217L203.039 146.216C203.225 145.989 203.468 145.826 203.737 145.744C204.006 145.662 204.292 145.664 204.56 145.75L204.559 145.75L204.563 145.751C207.189 146.537 208.575 146.998 209.333 147.291C209.712 147.437 209.929 147.54 210.064 147.616C210.193 147.69 210.248 147.741 210.304 147.793L210.304 147.793C210.843 148.293 211.23 148.952 211.416 149.688C211.602 150.424 211.578 151.202 211.347 151.925C211.116 152.648 210.689 153.282 210.122 153.749C209.555 154.214 208.874 154.493 208.162 154.551L207.978 154.556L207.978 154.556C207.077 154.581 206.198 154.249 205.517 153.621L205.517 153.621L205.515 153.619C205.456 153.567 205.399 153.516 205.311 153.39C205.218 153.258 205.091 153.045 204.901 152.668C204.52 151.913 203.895 150.526 202.798 147.885L202.798 147.885L202.797 147.884C202.682 147.612 202.643 147.309 202.686 147.013C202.729 146.716 202.851 146.44 203.038 146.217Z" fill="#B57E3D" stroke="#262626" stroke-width="0.350802"/>
<path d="M200.477 125.767L200.476 125.767L200.46 125.767C200.181 125.773 199.907 125.693 199.669 125.537C199.431 125.38 199.24 125.153 199.12 124.881L199.12 124.881L199.119 124.879C197.935 122.28 197.343 120.877 197.047 120.081C196.758 119.306 196.754 119.122 196.751 118.975C196.751 118.972 196.751 118.97 196.751 118.967C196.741 117.946 197.112 116.963 197.781 116.231C198.45 115.498 199.362 115.074 200.318 115.049L200.318 115.049L200.353 115.048C201.315 115.034 202.244 115.424 202.935 116.136C203.626 116.849 204.022 117.826 204.033 118.853L204.033 118.856C204.034 118.935 204.035 119.014 204.004 119.167C203.972 119.328 203.905 119.571 203.765 119.973C203.485 120.778 202.921 122.2 201.785 124.836L201.785 124.836L201.784 124.838C201.671 125.111 201.487 125.343 201.255 125.507C201.023 125.671 200.753 125.76 200.477 125.767ZM200.361 117.159L200.361 117.159C199.931 117.168 199.522 117.348 199.216 117.662C198.91 117.975 198.729 118.397 198.707 118.842L198.706 118.871L198.714 118.9C198.824 119.275 199.283 120.427 200.255 122.594L200.42 122.96L200.577 122.589C201.506 120.39 201.942 119.212 202.044 118.847L202.053 118.817L202.05 118.787C202.019 118.343 201.83 117.927 201.517 117.624C201.204 117.32 200.791 117.153 200.361 117.159Z" fill="#B57E3D" stroke="#262626" stroke-width="0.350802"/>
<path d="M259.099 129.065L259.099 129.067C259.1 129.147 259.101 129.226 259.07 129.379C259.038 129.54 258.971 129.783 258.831 130.186C258.551 130.991 257.987 132.413 256.852 135.051L256.852 135.052C256.736 135.322 256.551 135.551 256.319 135.713C256.088 135.874 255.819 135.963 255.543 135.968L255.542 135.968L255.526 135.969L255.529 136.144L255.546 136.143C255.856 136.137 256.159 136.038 256.419 135.857C256.679 135.675 256.885 135.42 257.013 135.12C259.283 129.845 259.278 129.409 259.275 129.062L259.275 129.062M259.099 129.065L259.275 129.062M259.099 129.065L259.099 129.065L259.275 129.062M259.099 129.065C259.088 128.038 258.692 127.061 258.001 126.348C257.31 125.636 256.382 125.246 255.419 125.26M259.275 129.062C259.263 127.991 258.851 126.971 258.127 126.225C257.404 125.48 256.429 125.069 255.417 125.084L255.377 125.085M255.377 125.085L255.381 125.261C255.381 125.261 255.381 125.261 255.381 125.261M255.377 125.085L255.381 125.261L255.381 125.261M255.377 125.085L255.526 135.969C255.248 135.975 254.974 135.897 254.737 135.742C254.499 135.587 254.307 135.362 254.186 135.092L254.186 135.091C253.002 132.492 252.41 131.089 252.113 130.293C251.824 129.518 251.821 129.333 251.818 129.187C251.818 129.184 251.818 129.181 251.818 129.179C251.809 128.159 252.18 127.177 252.847 126.445C253.515 125.712 254.426 125.288 255.381 125.261M255.419 125.26L255.42 125.26L255.417 125.084L255.418 125.26C255.419 125.26 255.419 125.26 255.419 125.26ZM255.419 125.26L255.381 125.261M255.441 127.36L255.44 127.36C255.011 127.369 254.602 127.549 254.295 127.863C253.989 128.176 253.808 128.598 253.786 129.043L253.785 129.072L253.793 129.099C253.9 129.476 254.363 130.629 255.335 132.795L255.499 133.161L255.656 132.79C256.586 130.591 257.021 129.413 257.124 129.048L257.132 129.018L257.13 128.988C257.099 128.544 256.909 128.128 256.596 127.825C256.283 127.521 255.87 127.354 255.441 127.36Z" fill="#B57E3D" stroke="#262626" stroke-width="0.350802"/>
<path d="M237.349 152.665L237.349 152.665C237.102 152.527 236.896 152.316 236.759 152.056C236.621 151.795 236.556 151.497 236.574 151.197L236.574 151.196C236.729 148.308 236.855 146.773 236.961 145.924C237.065 145.097 237.147 144.935 237.212 144.81C237.213 144.807 237.215 144.804 237.216 144.801L237.216 144.801C237.444 144.353 237.752 143.957 238.123 143.635C238.495 143.314 238.921 143.073 239.378 142.927C239.836 142.78 240.315 142.73 240.79 142.78C241.264 142.829 241.725 142.978 242.145 143.216L242.145 143.216C242.994 143.698 243.629 144.519 243.906 145.502C244.183 146.485 244.079 147.545 243.618 148.449L243.617 148.452C243.581 148.522 243.546 148.59 243.45 148.708C243.348 148.832 243.179 149.01 242.873 149.291C242.26 149.852 241.116 150.809 238.917 152.539C238.692 152.715 238.426 152.819 238.149 152.842C237.872 152.864 237.595 152.803 237.349 152.665ZM238.994 145.705L239.085 145.759L238.972 145.75C238.894 146.135 238.772 147.382 238.624 149.79L238.6 150.183L238.908 149.937C240.724 148.486 241.64 147.686 241.904 147.405L241.925 147.383L241.938 147.354C242.11 146.948 242.132 146.49 241.998 146.071C241.863 145.651 241.583 145.299 241.21 145.087C240.836 144.876 240.398 144.821 239.986 144.937C239.573 145.053 239.22 145.328 238.994 145.705Z" fill="#B57E3D" stroke="#262626" stroke-width="0.350802"/>
<path d="M225.985 115.53L225.985 115.529C225.62 115.203 225.319 114.804 225.099 114.353C224.88 113.902 224.747 113.409 224.708 112.902C224.669 112.395 224.724 111.885 224.871 111.401C225.018 110.916 225.254 110.467 225.564 110.079L225.564 110.079C226.189 109.296 227.08 108.809 228.038 108.721C228.996 108.633 229.948 108.951 230.685 109.607L230.685 109.607L230.688 109.61L230.693 109.614C230.794 109.699 230.925 109.81 231.309 110.545C231.701 111.293 232.346 112.671 233.485 115.292C233.601 115.564 233.642 115.866 233.602 116.163C233.562 116.46 233.444 116.739 233.261 116.967C233.079 117.194 232.841 117.361 232.575 117.45C232.309 117.539 232.025 117.546 231.756 117.47L231.756 117.47C229.118 116.733 227.726 116.296 226.963 116.016C226.582 115.876 226.364 115.778 226.228 115.703C226.098 115.632 226.043 115.582 225.986 115.531L225.985 115.53ZM227.046 111.442L227.046 111.442C226.773 111.787 226.635 112.227 226.658 112.672C226.681 113.117 226.863 113.537 227.17 113.846L227.193 113.868L227.222 113.881C227.563 114.036 228.69 114.409 230.875 115.049L231.24 115.156L231.086 114.809C230.125 112.637 229.578 111.529 229.372 111.199L229.356 111.173L229.332 111.154C228.99 110.888 228.562 110.768 228.136 110.822C227.71 110.875 227.321 111.098 227.046 111.442Z" fill="#B57E3D" stroke="#262626" stroke-width="0.350802"/>
<mask id="path-11-inside-1_343_24" fill="white">
<path d="M281.579 215.104L279.21 215.167C281.627 212.378 283.722 209.003 283.617 203.663C283.598 202.661 283.502 201.662 283.33 200.677C288.687 199.911 291.744 193.996 291.633 188.344C291.507 181.982 287.513 177.647 281.922 177.796L279.887 177.851L279.761 171.458C281.655 170.631 283.326 169.319 284.624 167.64C285.737 166.196 286.54 164.514 286.978 162.712C287.416 160.909 287.478 159.029 287.159 157.202C283.252 134.812 269.49 115.392 250.276 105.06L252.275 98.8335L274.094 106.823C274.31 106.904 274.545 106.914 274.767 106.853C274.99 106.791 275.191 106.661 275.343 106.479C275.496 106.296 275.594 106.07 275.625 105.829C275.656 105.588 275.618 105.343 275.517 105.126L272.021 97.5447L279.144 93.8526C279.349 93.745 279.521 93.5755 279.636 93.3656C279.75 93.1556 279.804 92.9145 279.79 92.6729C279.776 92.4312 279.694 92.1998 279.555 92.0079C279.416 91.8159 279.227 91.6721 279.01 91.5945L256.016 83.4015C255.724 83.2986 255.406 83.3222 255.13 83.4673C254.993 83.5395 254.87 83.6401 254.77 83.7631C254.671 83.886 254.595 84.0289 254.548 84.1831L250.463 96.8969L248.183 103.985C238.292 99.1161 227.449 96.7744 216.525 97.1476C205.601 97.5209 194.901 100.599 185.284 106.134C175.667 111.669 167.401 119.508 161.15 129.02C154.899 138.531 150.838 149.452 149.292 160.903C149.045 162.743 149.18 164.617 149.688 166.393C150.195 168.169 151.062 169.805 152.229 171.188C153.582 172.797 155.295 174.023 157.211 174.755L157.337 181.134L156.434 181.158C152.014 181.277 148.944 182.872 147.306 185.902C145.949 188.414 146.005 191.29 146.039 193.008C146.164 199.328 149.403 203.306 154.826 204.012C154.682 205.041 154.619 206.08 154.639 207.119C154.689 211.322 156.231 215.345 158.959 218.389L157.133 218.438C155.114 218.501 153.197 219.407 151.801 220.958C150.405 222.509 149.644 224.579 149.683 226.715L149.734 229.315C149.825 233.623 151.527 237.709 154.467 240.678C157.407 243.647 161.346 245.255 165.419 245.151L274.381 242.231C278.454 242.117 282.324 240.3 285.144 237.176C287.964 234.053 289.502 229.88 289.421 225.572L289.37 222.972C289.325 220.832 288.48 218.802 287.019 217.327C285.559 215.852 283.602 215.052 281.579 215.104ZM256.367 86.1196L275.604 92.9566L269.966 95.9087C269.829 95.9798 269.707 96.0787 269.606 96.1998C269.505 96.3209 269.427 96.4617 269.378 96.6143C269.328 96.7668 269.307 96.9281 269.317 97.0888C269.326 97.2496 269.365 97.4066 269.432 97.551L272.199 103.555L253.037 96.5128L256.367 86.1196ZM286.032 188.494C286.105 192.211 284.15 194.763 282.281 194.813C281.948 194.825 281.616 194.809 281.287 194.766C279.272 191.094 276.12 188.274 272.361 186.781C272.024 186.646 271.665 186.582 271.304 186.592C264.982 186.762 262.607 189.528 260.701 191.75C258.912 193.832 257.498 195.477 251.841 195.629C246.921 195.76 243.613 194.522 240.478 192.981L247.596 184.668L282.062 183.745C285.433 183.654 285.996 186.682 286.032 188.494ZM224.979 188.73L221.689 185.362L239.838 184.876L233.82 191.906L233.801 191.931L231.148 195.042L224.979 188.73ZM162.859 175.475L274.178 172.493L274.286 178.001L162.968 180.983L162.859 175.475ZM156.454 167.223C155.827 166.483 155.36 165.606 155.087 164.654C154.813 163.701 154.738 162.697 154.869 161.709C156.3 151.128 160.067 141.041 165.864 132.267C171.661 123.493 179.326 116.279 188.236 111.209C197.146 106.14 207.05 103.357 217.146 103.088C227.243 102.819 237.246 105.071 246.345 109.66L241.907 123.469C241.858 123.621 241.838 123.782 241.847 123.943C241.857 124.103 241.897 124.26 241.964 124.404C242.031 124.548 242.124 124.676 242.239 124.781C242.353 124.887 242.486 124.967 242.63 125.018C242.758 125.065 242.893 125.086 243.028 125.081C243.266 125.075 243.496 124.992 243.688 124.842C243.88 124.693 244.024 124.485 244.101 124.247L248.432 110.763C256.993 115.527 264.421 122.274 270.166 130.502C275.91 138.731 279.824 148.23 281.617 158.296C281.79 159.277 281.759 160.287 281.525 161.256C281.292 162.225 280.861 163.129 280.264 163.906C279.653 164.703 278.886 165.35 278.017 165.803C277.147 166.256 276.196 166.505 275.228 166.53L161.575 169.575C160.609 169.6 159.651 169.402 158.767 168.996C157.883 168.59 157.094 167.985 156.454 167.223ZM151.664 192.875C151.599 189.614 151.553 187.259 156.552 187.125L213.786 185.591L217.073 188.959C214.04 189.951 211.826 191.473 209.802 192.883C206.67 195.067 203.966 196.929 198.256 197.082C192.301 197.241 189.897 195.328 187.358 193.302C184.879 191.324 182.071 189.084 176.791 189.226C170.902 189.384 166.923 192.372 163.723 194.775C161.655 196.329 159.865 197.68 157.953 198.081C157.617 198.153 157.275 198.194 156.932 198.203C153.313 198.268 151.739 196.679 151.663 192.858L151.664 192.875ZM160.264 207C160.239 205.802 160.377 204.606 160.674 203.449C163.027 202.595 165.026 201.095 166.97 199.636C169.939 197.406 172.744 195.3 176.912 195.189C180.22 195.1 181.797 196.346 183.96 198.07C186.855 200.381 190.46 203.257 198.377 203.044C205.692 202.849 209.509 200.201 212.872 197.866C215.527 196.027 217.856 194.421 221.961 193.971L229.302 201.477C229.566 201.75 229.879 201.965 230.223 202.108C230.567 202.252 230.934 202.321 231.305 202.313L231.331 202.312C231.709 202.298 232.08 202.203 232.423 202.034C232.766 201.865 233.074 201.624 233.327 201.327L236.508 197.608C240.421 199.632 244.922 201.783 251.935 201.596C260.014 201.379 262.69 198.261 264.842 195.76C266.363 193.99 267.392 192.793 270.853 192.584C273.462 193.774 275.578 195.915 276.818 198.618C277.567 200.245 277.971 202.026 278 203.838C278.066 207.191 276.829 209.233 274.671 211.63C273.592 212.831 272.299 213.795 270.867 214.466C269.436 215.137 267.894 215.502 266.331 215.54L172.375 218.058C165.486 218.214 160.393 213.561 160.263 206.968L160.264 207ZM283.798 225.747C283.849 228.478 282.874 231.123 281.087 233.103C279.299 235.083 276.846 236.235 274.264 236.307L165.292 239.226C162.708 239.29 160.21 238.266 158.347 236.379C156.485 234.493 155.41 231.897 155.358 229.164L155.307 226.564C155.296 226.005 155.494 225.463 155.858 225.055C156.221 224.648 156.722 224.407 157.25 224.387L281.696 221.053C282.228 221.038 282.744 221.248 283.128 221.637C283.513 222.025 283.735 222.56 283.746 223.123L283.798 225.747Z"/>
</mask>
<path d="M281.579 215.104L279.21 215.167C281.627 212.378 283.722 209.003 283.617 203.663C283.598 202.661 283.502 201.662 283.33 200.677C288.687 199.911 291.744 193.996 291.633 188.344C291.507 181.982 287.513 177.647 281.922 177.796L279.887 177.851L279.761 171.458C281.655 170.631 283.326 169.319 284.624 167.64C285.737 166.196 286.54 164.514 286.978 162.712C287.416 160.909 287.478 159.029 287.159 157.202C283.252 134.812 269.49 115.392 250.276 105.06L252.275 98.8335L274.094 106.823C274.31 106.904 274.545 106.914 274.767 106.853C274.99 106.791 275.191 106.661 275.343 106.479C275.496 106.296 275.594 106.07 275.625 105.829C275.656 105.588 275.618 105.343 275.517 105.126L272.021 97.5447L279.144 93.8526C279.349 93.745 279.521 93.5755 279.636 93.3656C279.75 93.1556 279.804 92.9145 279.79 92.6729C279.776 92.4312 279.694 92.1998 279.555 92.0079C279.416 91.8159 279.227 91.6721 279.01 91.5945L256.016 83.4015C255.724 83.2986 255.406 83.3222 255.13 83.4673C254.993 83.5395 254.87 83.6401 254.77 83.7631C254.671 83.886 254.595 84.0289 254.548 84.1831L250.463 96.8969L248.183 103.985C238.292 99.1161 227.449 96.7744 216.525 97.1476C205.601 97.5209 194.901 100.599 185.284 106.134C175.667 111.669 167.401 119.508 161.15 129.02C154.899 138.531 150.838 149.452 149.292 160.903C149.045 162.743 149.18 164.617 149.688 166.393C150.195 168.169 151.062 169.805 152.229 171.188C153.582 172.797 155.295 174.023 157.211 174.755L157.337 181.134L156.434 181.158C152.014 181.277 148.944 182.872 147.306 185.902C145.949 188.414 146.005 191.29 146.039 193.008C146.164 199.328 149.403 203.306 154.826 204.012C154.682 205.041 154.619 206.08 154.639 207.119C154.689 211.322 156.231 215.345 158.959 218.389L157.133 218.438C155.114 218.501 153.197 219.407 151.801 220.958C150.405 222.509 149.644 224.579 149.683 226.715L149.734 229.315C149.825 233.623 151.527 237.709 154.467 240.678C157.407 243.647 161.346 245.255 165.419 245.151L274.381 242.231C278.454 242.117 282.324 240.3 285.144 237.176C287.964 234.053 289.502 229.88 289.421 225.572L289.37 222.972C289.325 220.832 288.48 218.802 287.019 217.327C285.559 215.852 283.602 215.052 281.579 215.104ZM256.367 86.1196L275.604 92.9566L269.966 95.9087C269.829 95.9798 269.707 96.0787 269.606 96.1998C269.505 96.3209 269.427 96.4617 269.378 96.6143C269.328 96.7668 269.307 96.9281 269.317 97.0888C269.326 97.2496 269.365 97.4066 269.432 97.551L272.199 103.555L253.037 96.5128L256.367 86.1196ZM286.032 188.494C286.105 192.211 284.15 194.763 282.281 194.813C281.948 194.825 281.616 194.809 281.287 194.766C279.272 191.094 276.12 188.274 272.361 186.781C272.024 186.646 271.665 186.582 271.304 186.592C264.982 186.762 262.607 189.528 260.701 191.75C258.912 193.832 257.498 195.477 251.841 195.629C246.921 195.76 243.613 194.522 240.478 192.981L247.596 184.668L282.062 183.745C285.433 183.654 285.996 186.682 286.032 188.494ZM224.979 188.73L221.689 185.362L239.838 184.876L233.82 191.906L233.801 191.931L231.148 195.042L224.979 188.73ZM162.859 175.475L274.178 172.493L274.286 178.001L162.968 180.983L162.859 175.475ZM156.454 167.223C155.827 166.483 155.36 165.606 155.087 164.654C154.813 163.701 154.738 162.697 154.869 161.709C156.3 151.128 160.067 141.041 165.864 132.267C171.661 123.493 179.326 116.279 188.236 111.209C197.146 106.14 207.05 103.357 217.146 103.088C227.243 102.819 237.246 105.071 246.345 109.66L241.907 123.469C241.858 123.621 241.838 123.782 241.847 123.943C241.857 124.103 241.897 124.26 241.964 124.404C242.031 124.548 242.124 124.676 242.239 124.781C242.353 124.887 242.486 124.967 242.63 125.018C242.758 125.065 242.893 125.086 243.028 125.081C243.266 125.075 243.496 124.992 243.688 124.842C243.88 124.693 244.024 124.485 244.101 124.247L248.432 110.763C256.993 115.527 264.421 122.274 270.166 130.502C275.91 138.731 279.824 148.23 281.617 158.296C281.79 159.277 281.759 160.287 281.525 161.256C281.292 162.225 280.861 163.129 280.264 163.906C279.653 164.703 278.886 165.35 278.017 165.803C277.147 166.256 276.196 166.505 275.228 166.53L161.575 169.575C160.609 169.6 159.651 169.402 158.767 168.996C157.883 168.59 157.094 167.985 156.454 167.223ZM151.664 192.875C151.599 189.614 151.553 187.259 156.552 187.125L213.786 185.591L217.073 188.959C214.04 189.951 211.826 191.473 209.802 192.883C206.67 195.067 203.966 196.929 198.256 197.082C192.301 197.241 189.897 195.328 187.358 193.302C184.879 191.324 182.071 189.084 176.791 189.226C170.902 189.384 166.923 192.372 163.723 194.775C161.655 196.329 159.865 197.68 157.953 198.081C157.617 198.153 157.275 198.194 156.932 198.203C153.313 198.268 151.739 196.679 151.663 192.858L151.664 192.875ZM160.264 207C160.239 205.802 160.377 204.606 160.674 203.449C163.027 202.595 165.026 201.095 166.97 199.636C169.939 197.406 172.744 195.3 176.912 195.189C180.22 195.1 181.797 196.346 183.96 198.07C186.855 200.381 190.46 203.257 198.377 203.044C205.692 202.849 209.509 200.201 212.872 197.866C215.527 196.027 217.856 194.421 221.961 193.971L229.302 201.477C229.566 201.75 229.879 201.965 230.223 202.108C230.567 202.252 230.934 202.321 231.305 202.313L231.331 202.312C231.709 202.298 232.08 202.203 232.423 202.034C232.766 201.865 233.074 201.624 233.327 201.327L236.508 197.608C240.421 199.632 244.922 201.783 251.935 201.596C260.014 201.379 262.69 198.261 264.842 195.76C266.363 193.99 267.392 192.793 270.853 192.584C273.462 193.774 275.578 195.915 276.818 198.618C277.567 200.245 277.971 202.026 278 203.838C278.066 207.191 276.829 209.233 274.671 211.63C273.592 212.831 272.299 213.795 270.867 214.466C269.436 215.137 267.894 215.502 266.331 215.54L172.375 218.058C165.486 218.214 160.393 213.561 160.263 206.968L160.264 207ZM283.798 225.747C283.849 228.478 282.874 231.123 281.087 233.103C279.299 235.083 276.846 236.235 274.264 236.307L165.292 239.226C162.708 239.29 160.21 238.266 158.347 236.379C156.485 234.493 155.41 231.897 155.358 229.164L155.307 226.564C155.296 226.005 155.494 225.463 155.858 225.055C156.221 224.648 156.722 224.407 157.25 224.387L281.696 221.053C282.228 221.038 282.744 221.248 283.128 221.637C283.513 222.025 283.735 222.56 283.746 223.123L283.798 225.747Z" fill="#684715"/>
<path d="M281.579 215.104L279.21 215.167C281.627 212.378 283.722 209.003 283.617 203.663C283.598 202.661 283.502 201.662 283.33 200.677C288.687 199.911 291.744 193.996 291.633 188.344C291.507 181.982 287.513 177.647 281.922 177.796L279.887 177.851L279.761 171.458C281.655 170.631 283.326 169.319 284.624 167.64C285.737 166.196 286.54 164.514 286.978 162.712C287.416 160.909 287.478 159.029 287.159 157.202C283.252 134.812 269.49 115.392 250.276 105.06L252.275 98.8335L274.094 106.823C274.31 106.904 274.545 106.914 274.767 106.853C274.99 106.791 275.191 106.661 275.343 106.479C275.496 106.296 275.594 106.07 275.625 105.829C275.656 105.588 275.618 105.343 275.517 105.126L272.021 97.5447L279.144 93.8526C279.349 93.745 279.521 93.5755 279.636 93.3656C279.75 93.1556 279.804 92.9145 279.79 92.6729C279.776 92.4312 279.694 92.1998 279.555 92.0079C279.416 91.8159 279.227 91.6721 279.01 91.5945L256.016 83.4015C255.724 83.2986 255.406 83.3222 255.13 83.4673C254.993 83.5395 254.87 83.6401 254.77 83.7631C254.671 83.886 254.595 84.0289 254.548 84.1831L250.463 96.8969L248.183 103.985C238.292 99.1161 227.449 96.7744 216.525 97.1476C205.601 97.5209 194.901 100.599 185.284 106.134C175.667 111.669 167.401 119.508 161.15 129.02C154.899 138.531 150.838 149.452 149.292 160.903C149.045 162.743 149.18 164.617 149.688 166.393C150.195 168.169 151.062 169.805 152.229 171.188C153.582 172.797 155.295 174.023 157.211 174.755L157.337 181.134L156.434 181.158C152.014 181.277 148.944 182.872 147.306 185.902C145.949 188.414 146.005 191.29 146.039 193.008C146.164 199.328 149.403 203.306 154.826 204.012C154.682 205.041 154.619 206.08 154.639 207.119C154.689 211.322 156.231 215.345 158.959 218.389L157.133 218.438C155.114 218.501 153.197 219.407 151.801 220.958C150.405 222.509 149.644 224.579 149.683 226.715L149.734 229.315C149.825 233.623 151.527 237.709 154.467 240.678C157.407 243.647 161.346 245.255 165.419 245.151L274.381 242.231C278.454 242.117 282.324 240.3 285.144 237.176C287.964 234.053 289.502 229.88 289.421 225.572L289.37 222.972C289.325 220.832 288.48 218.802 287.019 217.327C285.559 215.852 283.602 215.052 281.579 215.104ZM256.367 86.1196L275.604 92.9566L269.966 95.9087C269.829 95.9798 269.707 96.0787 269.606 96.1998C269.505 96.3209 269.427 96.4617 269.378 96.6143C269.328 96.7668 269.307 96.9281 269.317 97.0888C269.326 97.2496 269.365 97.4066 269.432 97.551L272.199 103.555L253.037 96.5128L256.367 86.1196ZM286.032 188.494C286.105 192.211 284.15 194.763 282.281 194.813C281.948 194.825 281.616 194.809 281.287 194.766C279.272 191.094 276.12 188.274 272.361 186.781C272.024 186.646 271.665 186.582 271.304 186.592C264.982 186.762 262.607 189.528 260.701 191.75C258.912 193.832 257.498 195.477 251.841 195.629C246.921 195.76 243.613 194.522 240.478 192.981L247.596 184.668L282.062 183.745C285.433 183.654 285.996 186.682 286.032 188.494ZM224.979 188.73L221.689 185.362L239.838 184.876L233.82 191.906L233.801 191.931L231.148 195.042L224.979 188.73ZM162.859 175.475L274.178 172.493L274.286 178.001L162.968 180.983L162.859 175.475ZM156.454 167.223C155.827 166.483 155.36 165.606 155.087 164.654C154.813 163.701 154.738 162.697 154.869 161.709C156.3 151.128 160.067 141.041 165.864 132.267C171.661 123.493 179.326 116.279 188.236 111.209C197.146 106.14 207.05 103.357 217.146 103.088C227.243 102.819 237.246 105.071 246.345 109.66L241.907 123.469C241.858 123.621 241.838 123.782 241.847 123.943C241.857 124.103 241.897 124.26 241.964 124.404C242.031 124.548 242.124 124.676 242.239 124.781C242.353 124.887 242.486 124.967 242.63 125.018C242.758 125.065 242.893 125.086 243.028 125.081C243.266 125.075 243.496 124.992 243.688 124.842C243.88 124.693 244.024 124.485 244.101 124.247L248.432 110.763C256.993 115.527 264.421 122.274 270.166 130.502C275.91 138.731 279.824 148.23 281.617 158.296C281.79 159.277 281.759 160.287 281.525 161.256C281.292 162.225 280.861 163.129 280.264 163.906C279.653 164.703 278.886 165.35 278.017 165.803C277.147 166.256 276.196 166.505 275.228 166.53L161.575 169.575C160.609 169.6 159.651 169.402 158.767 168.996C157.883 168.59 157.094 167.985 156.454 167.223ZM151.664 192.875C151.599 189.614 151.553 187.259 156.552 187.125L213.786 185.591L217.073 188.959C214.04 189.951 211.826 191.473 209.802 192.883C206.67 195.067 203.966 196.929 198.256 197.082C192.301 197.241 189.897 195.328 187.358 193.302C184.879 191.324 182.071 189.084 176.791 189.226C170.902 189.384 166.923 192.372 163.723 194.775C161.655 196.329 159.865 197.68 157.953 198.081C157.617 198.153 157.275 198.194 156.932 198.203C153.313 198.268 151.739 196.679 151.663 192.858L151.664 192.875ZM160.264 207C160.239 205.802 160.377 204.606 160.674 203.449C163.027 202.595 165.026 201.095 166.97 199.636C169.939 197.406 172.744 195.3 176.912 195.189C180.22 195.1 181.797 196.346 183.96 198.07C186.855 200.381 190.46 203.257 198.377 203.044C205.692 202.849 209.509 200.201 212.872 197.866C215.527 196.027 217.856 194.421 221.961 193.971L229.302 201.477C229.566 201.75 229.879 201.965 230.223 202.108C230.567 202.252 230.934 202.321 231.305 202.313L231.331 202.312C231.709 202.298 232.08 202.203 232.423 202.034C232.766 201.865 233.074 201.624 233.327 201.327L236.508 197.608C240.421 199.632 244.922 201.783 251.935 201.596C260.014 201.379 262.69 198.261 264.842 195.76C266.363 193.99 267.392 192.793 270.853 192.584C273.462 193.774 275.578 195.915 276.818 198.618C277.567 200.245 277.971 202.026 278 203.838C278.066 207.191 276.829 209.233 274.671 211.63C273.592 212.831 272.299 213.795 270.867 214.466C269.436 215.137 267.894 215.502 266.331 215.54L172.375 218.058C165.486 218.214 160.393 213.561 160.263 206.968L160.264 207ZM283.798 225.747C283.849 228.478 282.874 231.123 281.087 233.103C279.299 235.083 276.846 236.235 274.264 236.307L165.292 239.226C162.708 239.29 160.21 238.266 158.347 236.379C156.485 234.493 155.41 231.897 155.358 229.164L155.307 226.564C155.296 226.005 155.494 225.463 155.858 225.055C156.221 224.648 156.722 224.407 157.25 224.387L281.696 221.053C282.228 221.038 282.744 221.248 283.128 221.637C283.513 222.025 283.735 222.56 283.746 223.123L283.798 225.747Z" fill="#B57E3D"/>
<path d="M281.579 215.104L279.21 215.167C281.627 212.378 283.722 209.003 283.617 203.663C283.598 202.661 283.502 201.662 283.33 200.677C288.687 199.911 291.744 193.996 291.633 188.344C291.507 181.982 287.513 177.647 281.922 177.796L279.887 177.851L279.761 171.458C281.655 170.631 283.326 169.319 284.624 167.64C285.737 166.196 286.54 164.514 286.978 162.712C287.416 160.909 287.478 159.029 287.159 157.202C283.252 134.812 269.49 115.392 250.276 105.06L252.275 98.8335L274.094 106.823C274.31 106.904 274.545 106.914 274.767 106.853C274.99 106.791 275.191 106.661 275.343 106.479C275.496 106.296 275.594 106.07 275.625 105.829C275.656 105.588 275.618 105.343 275.517 105.126L272.021 97.5447L279.144 93.8526C279.349 93.745 279.521 93.5755 279.636 93.3656C279.75 93.1556 279.804 92.9145 279.79 92.6729C279.776 92.4312 279.694 92.1998 279.555 92.0079C279.416 91.8159 279.227 91.6721 279.01 91.5945L256.016 83.4015C255.724 83.2986 255.406 83.3222 255.13 83.4673C254.993 83.5395 254.87 83.6401 254.77 83.7631C254.671 83.886 254.595 84.0289 254.548 84.1831L250.463 96.8969L248.183 103.985C238.292 99.1161 227.449 96.7744 216.525 97.1476C205.601 97.5209 194.901 100.599 185.284 106.134C175.667 111.669 167.401 119.508 161.15 129.02C154.899 138.531 150.838 149.452 149.292 160.903C149.045 162.743 149.18 164.617 149.688 166.393C150.195 168.169 151.062 169.805 152.229 171.188C153.582 172.797 155.295 174.023 157.211 174.755L157.337 181.134L156.434 181.158C152.014 181.277 148.944 182.872 147.306 185.902C145.949 188.414 146.005 191.29 146.039 193.008C146.164 199.328 149.403 203.306 154.826 204.012C154.682 205.041 154.619 206.08 154.639 207.119C154.689 211.322 156.231 215.345 158.959 218.389L157.133 218.438C155.114 218.501 153.197 219.407 151.801 220.958C150.405 222.509 149.644 224.579 149.683 226.715L149.734 229.315C149.825 233.623 151.527 237.709 154.467 240.678C157.407 243.647 161.346 245.255 165.419 245.151L274.381 242.231C278.454 242.117 282.324 240.3 285.144 237.176C287.964 234.053 289.502 229.88 289.421 225.572L289.37 222.972C289.325 220.832 288.48 218.802 287.019 217.327C285.559 215.852 283.602 215.052 281.579 215.104ZM256.367 86.1196L275.604 92.9566L269.966 95.9087C269.829 95.9798 269.707 96.0787 269.606 96.1998C269.505 96.3209 269.427 96.4617 269.378 96.6143C269.328 96.7668 269.307 96.9281 269.317 97.0888C269.326 97.2496 269.365 97.4066 269.432 97.551L272.199 103.555L253.037 96.5128L256.367 86.1196ZM286.032 188.494C286.105 192.211 284.15 194.763 282.281 194.813C281.948 194.825 281.616 194.809 281.287 194.766C279.272 191.094 276.12 188.274 272.361 186.781C272.024 186.646 271.665 186.582 271.304 186.592C264.982 186.762 262.607 189.528 260.701 191.75C258.912 193.832 257.498 195.477 251.841 195.629C246.921 195.76 243.613 194.522 240.478 192.981L247.596 184.668L282.062 183.745C285.433 183.654 285.996 186.682 286.032 188.494ZM224.979 188.73L221.689 185.362L239.838 184.876L233.82 191.906L233.801 191.931L231.148 195.042L224.979 188.73ZM162.859 175.475L274.178 172.493L274.286 178.001L162.968 180.983L162.859 175.475ZM156.454 167.223C155.827 166.483 155.36 165.606 155.087 164.654C154.813 163.701 154.738 162.697 154.869 161.709C156.3 151.128 160.067 141.041 165.864 132.267C171.661 123.493 179.326 116.279 188.236 111.209C197.146 106.14 207.05 103.357 217.146 103.088C227.243 102.819 237.246 105.071 246.345 109.66L241.907 123.469C241.858 123.621 241.838 123.782 241.847 123.943C241.857 124.103 241.897 124.26 241.964 124.404C242.031 124.548 242.124 124.676 242.239 124.781C242.353 124.887 242.486 124.967 242.63 125.018C242.758 125.065 242.893 125.086 243.028 125.081C243.266 125.075 243.496 124.992 243.688 124.842C243.88 124.693 244.024 124.485 244.101 124.247L248.432 110.763C256.993 115.527 264.421 122.274 270.166 130.502C275.91 138.731 279.824 148.23 281.617 158.296C281.79 159.277 281.759 160.287 281.525 161.256C281.292 162.225 280.861 163.129 280.264 163.906C279.653 164.703 278.886 165.35 278.017 165.803C277.147 166.256 276.196 166.505 275.228 166.53L161.575 169.575C160.609 169.6 159.651 169.402 158.767 168.996C157.883 168.59 157.094 167.985 156.454 167.223ZM151.664 192.875C151.599 189.614 151.553 187.259 156.552 187.125L213.786 185.591L217.073 188.959C214.04 189.951 211.826 191.473 209.802 192.883C206.67 195.067 203.966 196.929 198.256 197.082C192.301 197.241 189.897 195.328 187.358 193.302C184.879 191.324 182.071 189.084 176.791 189.226C170.902 189.384 166.923 192.372 163.723 194.775C161.655 196.329 159.865 197.68 157.953 198.081C157.617 198.153 157.275 198.194 156.932 198.203C153.313 198.268 151.739 196.679 151.663 192.858L151.664 192.875ZM160.264 207C160.239 205.802 160.377 204.606 160.674 203.449C163.027 202.595 165.026 201.095 166.97 199.636C169.939 197.406 172.744 195.3 176.912 195.189C180.22 195.1 181.797 196.346 183.96 198.07C186.855 200.381 190.46 203.257 198.377 203.044C205.692 202.849 209.509 200.201 212.872 197.866C215.527 196.027 217.856 194.421 221.961 193.971L229.302 201.477C229.566 201.75 229.879 201.965 230.223 202.108C230.567 202.252 230.934 202.321 231.305 202.313L231.331 202.312C231.709 202.298 232.08 202.203 232.423 202.034C232.766 201.865 233.074 201.624 233.327 201.327L236.508 197.608C240.421 199.632 244.922 201.783 251.935 201.596C260.014 201.379 262.69 198.261 264.842 195.76C266.363 193.99 267.392 192.793 270.853 192.584C273.462 193.774 275.578 195.915 276.818 198.618C277.567 200.245 277.971 202.026 278 203.838C278.066 207.191 276.829 209.233 274.671 211.63C273.592 212.831 272.299 213.795 270.867 214.466C269.436 215.137 267.894 215.502 266.331 215.54L172.375 218.058C165.486 218.214 160.393 213.561 160.263 206.968L160.264 207ZM283.798 225.747C283.849 228.478 282.874 231.123 281.087 233.103C279.299 235.083 276.846 236.235 274.264 236.307L165.292 239.226C162.708 239.29 160.21 238.266 158.347 236.379C156.485 234.493 155.41 231.897 155.358 229.164L155.307 226.564C155.296 226.005 155.494 225.463 155.858 225.055C156.221 224.648 156.722 224.407 157.25 224.387L281.696 221.053C282.228 221.038 282.744 221.248 283.128 221.637C283.513 222.025 283.735 222.56 283.746 223.123L283.798 225.747Z" stroke="#F3F3F3" stroke-width="5.32353" mask="url(#path-11-inside-1_343_24)"/>
<path d="M281.579 215.104L279.21 215.167C281.627 212.378 283.722 209.003 283.617 203.663C283.598 202.661 283.502 201.662 283.33 200.677C288.687 199.911 291.744 193.996 291.633 188.344C291.507 181.982 287.513 177.647 281.922 177.796L279.887 177.851L279.761 171.458C281.655 170.631 283.326 169.319 284.624 167.64C285.737 166.196 286.54 164.514 286.978 162.712C287.416 160.909 287.478 159.029 287.159 157.202C283.252 134.812 269.49 115.392 250.276 105.06L252.275 98.8335L274.094 106.823C274.31 106.904 274.545 106.914 274.767 106.853C274.99 106.791 275.191 106.661 275.343 106.479C275.496 106.296 275.594 106.07 275.625 105.829C275.656 105.588 275.618 105.343 275.517 105.126L272.021 97.5447L279.144 93.8526C279.349 93.745 279.521 93.5755 279.636 93.3656C279.75 93.1556 279.804 92.9145 279.79 92.6729C279.776 92.4312 279.694 92.1998 279.555 92.0079C279.416 91.8159 279.227 91.6721 279.01 91.5945L256.016 83.4015C255.724 83.2986 255.406 83.3222 255.13 83.4673C254.993 83.5395 254.87 83.6401 254.77 83.7631C254.671 83.886 254.595 84.0289 254.548 84.1831L250.463 96.8969L248.183 103.985C238.292 99.1161 227.449 96.7744 216.525 97.1476C205.601 97.5209 194.901 100.599 185.284 106.134C175.667 111.669 167.401 119.508 161.15 129.02C154.899 138.531 150.838 149.452 149.292 160.903C149.045 162.743 149.18 164.617 149.688 166.393C150.195 168.169 151.062 169.805 152.229 171.188C153.582 172.797 155.295 174.023 157.211 174.755L157.337 181.134L156.434 181.158C152.014 181.277 148.944 182.872 147.306 185.902C145.949 188.414 146.005 191.29 146.039 193.008C146.164 199.328 149.403 203.306 154.826 204.012C154.682 205.041 154.619 206.08 154.639 207.119C154.689 211.322 156.231 215.345 158.959 218.389L157.133 218.438C155.114 218.501 153.197 219.407 151.801 220.958C150.405 222.509 149.644 224.579 149.683 226.715L149.734 229.315C149.825 233.623 151.527 237.709 154.467 240.678C157.407 243.647 161.346 245.255 165.419 245.151L274.381 242.231C278.454 242.117 282.324 240.3 285.144 237.176C287.964 234.053 289.502 229.88 289.421 225.572L289.37 222.972C289.325 220.832 288.48 218.802 287.019 217.327C285.559 215.852 283.602 215.052 281.579 215.104ZM256.367 86.1196L275.604 92.9566L269.966 95.9087C269.829 95.9798 269.707 96.0787 269.606 96.1998C269.505 96.3209 269.427 96.4617 269.378 96.6143C269.328 96.7668 269.307 96.9281 269.317 97.0888C269.326 97.2496 269.365 97.4066 269.432 97.551L272.199 103.555L253.037 96.5128L256.367 86.1196ZM286.032 188.494C286.105 192.211 284.15 194.763 282.281 194.813C281.948 194.825 281.616 194.809 281.287 194.766C279.272 191.094 276.12 188.274 272.361 186.781C272.024 186.646 271.665 186.582 271.304 186.592C264.982 186.762 262.607 189.528 260.701 191.75C258.912 193.832 257.498 195.477 251.841 195.629C246.921 195.76 243.613 194.522 240.478 192.981L247.596 184.668L282.062 183.745C285.433 183.654 285.996 186.682 286.032 188.494ZM224.979 188.73L221.689 185.362L239.838 184.876L233.82 191.906L233.801 191.931L231.148 195.042L224.979 188.73ZM162.859 175.475L274.178 172.493L274.286 178.001L162.968 180.983L162.859 175.475ZM156.454 167.223C155.827 166.483 155.36 165.606 155.087 164.654C154.813 163.701 154.738 162.697 154.869 161.709C156.3 151.128 160.067 141.041 165.864 132.267C171.661 123.493 179.326 116.279 188.236 111.209C197.146 106.14 207.05 103.357 217.146 103.088C227.243 102.819 237.246 105.071 246.345 109.66L241.907 123.469C241.858 123.621 241.838 123.782 241.847 123.943C241.857 124.103 241.897 124.26 241.964 124.404C242.031 124.548 242.124 124.676 242.239 124.781C242.353 124.887 242.486 124.967 242.63 125.018C242.758 125.065 242.893 125.086 243.028 125.081C243.266 125.075 243.496 124.992 243.688 124.842C243.88 124.693 244.024 124.485 244.101 124.247L248.432 110.763C256.993 115.527 264.421 122.274 270.166 130.502C275.91 138.731 279.824 148.23 281.617 158.296C281.79 159.277 281.759 160.287 281.525 161.256C281.292 162.225 280.861 163.129 280.264 163.906C279.653 164.703 278.886 165.35 278.017 165.803C277.147 166.256 276.196 166.505 275.228 166.53L161.575 169.575C160.609 169.6 159.651 169.402 158.767 168.996C157.883 168.59 157.094 167.985 156.454 167.223ZM151.664 192.875C151.599 189.614 151.553 187.259 156.552 187.125L213.786 185.591L217.073 188.959C214.04 189.951 211.826 191.473 209.802 192.883C206.67 195.067 203.966 196.929 198.256 197.082C192.301 197.241 189.897 195.328 187.358 193.302C184.879 191.324 182.071 189.084 176.791 189.226C170.902 189.384 166.923 192.372 163.723 194.775C161.655 196.329 159.865 197.68 157.953 198.081C157.617 198.153 157.275 198.194 156.932 198.203C153.313 198.268 151.739 196.679 151.663 192.858L151.664 192.875ZM160.264 207C160.239 205.802 160.377 204.606 160.674 203.449C163.027 202.595 165.026 201.095 166.97 199.636C169.939 197.406 172.744 195.3 176.912 195.189C180.22 195.1 181.797 196.346 183.96 198.07C186.855 200.381 190.46 203.257 198.377 203.044C205.692 202.849 209.509 200.201 212.872 197.866C215.527 196.027 217.856 194.421 221.961 193.971L229.302 201.477C229.566 201.75 229.879 201.965 230.223 202.108C230.567 202.252 230.934 202.321 231.305 202.313L231.331 202.312C231.709 202.298 232.08 202.203 232.423 202.034C232.766 201.865 233.074 201.624 233.327 201.327L236.508 197.608C240.421 199.632 244.922 201.783 251.935 201.596C260.014 201.379 262.69 198.261 264.842 195.76C266.363 193.99 267.392 192.793 270.853 192.584C273.462 193.774 275.578 195.915 276.818 198.618C277.567 200.245 277.971 202.026 278 203.838C278.066 207.191 276.829 209.233 274.671 211.63C273.592 212.831 272.299 213.795 270.867 214.466C269.436 215.137 267.894 215.502 266.331 215.54L172.375 218.058C165.486 218.214 160.393 213.561 160.263 206.968L160.264 207ZM283.798 225.747C283.849 228.478 282.874 231.123 281.087 233.103C279.299 235.083 276.846 236.235 274.264 236.307L165.292 239.226C162.708 239.29 160.21 238.266 158.347 236.379C156.485 234.493 155.41 231.897 155.358 229.164L155.307 226.564C155.296 226.005 155.494 225.463 155.858 225.055C156.221 224.648 156.722 224.407 157.25 224.387L281.696 221.053C282.228 221.038 282.744 221.248 283.128 221.637C283.513 222.025 283.735 222.56 283.746 223.123L283.798 225.747Z" stroke="#4F4F4F" stroke-width="5.32353" mask="url(#path-11-inside-1_343_24)"/>
<path d="M168.307 136.809L168.306 136.81C166.591 138.898 164.534 142.991 162.752 147.553C160.972 152.11 159.475 157.11 158.87 160.998L168.307 136.809ZM168.307 136.809C168.393 136.702 168.498 136.616 168.615 136.554C168.732 136.491 168.858 136.455 168.988 136.445C169.118 136.436 169.248 136.454 169.371 136.498C169.494 136.543 169.608 136.613 169.706 136.705C169.896 136.887 170.013 137.141 170.031 137.416C170.048 137.69 169.963 137.96 169.798 138.168C168.204 140.099 166.239 144.094 164.535 148.487C162.829 152.887 161.375 157.714 160.813 161.323L160.813 161.325C160.777 161.571 160.661 161.794 160.487 161.957C160.313 162.119 160.093 162.21 159.865 162.217L159.865 162.216L159.862 162.217C159.803 162.22 159.745 162.215 159.688 162.204L159.688 162.204M168.307 136.809L159.688 162.204M159.688 162.204L159.684 162.204M159.688 162.204L159.684 162.204M159.684 162.204C159.429 162.16 159.198 162.011 159.044 161.786C158.89 161.559 158.827 161.276 158.87 160.998L159.684 162.204Z" fill="#FF9900" stroke="#262626" stroke-width="0.350802"/>
<path d="M165.814 234.575L194.296 233.817C194.554 233.81 194.804 233.91 194.993 234.1C195.182 234.289 195.292 234.552 195.298 234.83C195.303 235.109 195.203 235.377 195.022 235.577C194.841 235.776 194.595 235.89 194.338 235.896L165.855 236.655C163.758 236.711 161.873 235.839 160.503 234.552C159.131 233.263 158.29 231.571 158.259 230.005C158.253 229.726 158.354 229.458 158.535 229.258C158.715 229.059 158.962 228.945 159.219 228.939C159.476 228.932 159.727 229.032 159.915 229.222C160.104 229.411 160.215 229.674 160.22 229.952C160.24 230.94 160.854 232.115 161.839 233.028C162.829 233.945 164.217 234.618 165.814 234.575Z" fill="#FF9900" stroke="#262626" stroke-width="0.350802"/>
<mask id="path-14-outside-2_343_24" maskUnits="userSpaceOnUse" x="181.942" y="228.829" width="165.688" height="46.6941" fill="black">
<rect fill="white" x="181.942" y="228.829" width="165.688" height="46.6941"/>
<path d="M186.929 272.355L185.291 240.001L198.462 239.298C199.999 239.772 201.389 240.671 202.63 241.995C203.871 243.319 204.541 244.967 204.641 246.939C204.817 250.421 203.8 252.916 201.591 254.424L201.6 254.609C204.514 256.029 206.056 258.419 206.226 261.778C206.421 265.629 204.625 268.907 200.839 271.612L186.929 272.355ZM192.252 253.023L196.827 252.779C198.141 251.874 198.754 250.575 198.669 248.88C198.583 247.185 197.883 245.879 196.57 244.96L191.857 245.212L192.252 253.023ZM192.942 266.658L197.702 266.404C198.236 265.973 198.697 265.315 199.085 264.43C199.504 263.542 199.691 262.667 199.647 261.804C199.604 260.942 199.379 260.166 198.973 259.477C198.568 258.788 198.079 258.289 197.507 257.979L192.516 258.246L192.942 266.658ZM217.804 265.33L221.686 265.123C222.326 264.348 222.766 263.583 223.006 262.828C223.275 262.041 223.372 260.909 223.297 259.429L222.214 238.03L228.545 237.692L229.512 256.78C229.591 258.352 229.607 259.587 229.56 260.485C229.542 261.352 229.411 262.424 229.167 263.704C228.757 265.982 227.417 268.185 225.146 270.315L214.887 270.862C212.416 269.048 210.86 266.999 210.22 264.716C209.662 262.861 209.315 260.578 209.178 257.866L208.212 238.777L214.543 238.439L215.626 259.839C215.701 261.318 215.897 262.435 216.213 263.191C216.558 263.914 217.089 264.627 217.804 265.33ZM232.768 237.466L245.061 236.81C247.034 237.353 248.743 238.467 250.188 240.151C251.662 241.803 252.462 243.892 252.59 246.418C252.799 250.547 251.32 253.67 248.153 255.785L253.492 268.801L247.022 269.147L242.497 257.57L240.048 257.701L240.644 269.487L234.406 269.82L232.768 237.466ZM239.287 242.68L239.786 252.524L243.76 252.312C244.278 252.161 244.821 251.607 245.39 250.649C245.989 249.66 246.256 248.533 246.192 247.27C246.129 246.006 245.795 244.912 245.192 243.986C244.62 243.059 244.069 242.548 243.539 242.453L239.287 242.68ZM271.952 267.816L262.155 268.339C259.834 266.424 258.094 264.091 256.936 261.341C255.777 258.592 255.12 255.691 254.966 252.641C254.81 249.56 255.273 246.492 256.354 243.437C257.435 240.382 259.038 237.887 261.165 235.95L272.394 235.351L272.675 240.897L264.079 241.356C263.325 242.323 262.706 243.824 262.222 245.858C261.737 247.861 261.551 249.988 261.665 252.237C261.777 254.456 262.146 256.568 262.773 258.573C263.429 260.547 264.18 261.959 265.026 262.81L269.463 262.573L268.826 250.001L274.927 249.675L275.32 257.44C275.535 261.692 274.413 265.151 271.952 267.816ZM287.169 261.627L291.051 261.42C291.691 260.644 292.131 259.879 292.371 259.125C292.64 258.338 292.738 257.205 292.663 255.726L291.579 234.327L297.911 233.989L298.877 253.077C298.956 254.649 298.973 255.884 298.925 256.782C298.907 257.648 298.776 258.721 298.532 260.001C298.122 262.279 296.782 264.482 294.511 266.611L284.252 267.159C281.781 265.345 280.226 263.296 279.585 261.013C279.028 259.158 278.68 256.875 278.543 254.163L277.577 235.074L283.908 234.736L284.991 256.136C285.066 257.615 285.262 258.732 285.578 259.488C285.923 260.211 286.454 260.924 287.169 261.627ZM303.771 266.117L302.133 233.763L318.724 232.877L319.004 238.424L308.745 238.972L309.136 246.69L318.286 246.202L318.557 251.563L309.407 252.052L309.831 260.418L320.275 259.86L320.546 265.222L303.771 266.117ZM322.487 232.677L334.779 232.02C336.753 232.564 338.462 233.678 339.907 235.362C341.381 237.013 342.181 239.102 342.309 241.629C342.518 245.758 341.039 248.88 337.872 250.996L343.211 264.012L336.741 264.357L332.216 252.781L329.767 252.911L330.363 264.698L324.124 265.031L322.487 232.677ZM329.006 237.89L329.505 247.735L333.479 247.523C333.996 247.371 334.54 246.817 335.109 245.86C335.708 244.87 335.975 243.744 335.911 242.48C335.847 241.217 335.514 240.122 334.911 239.197C334.339 238.27 333.788 237.758 333.258 237.663L329.006 237.89Z"/>
</mask>
<path d="M186.929 272.355L185.291 240.001L198.462 239.298C199.999 239.772 201.389 240.671 202.63 241.995C203.871 243.319 204.541 244.967 204.641 246.939C204.817 250.421 203.8 252.916 201.591 254.424L201.6 254.609C204.514 256.029 206.056 258.419 206.226 261.778C206.421 265.629 204.625 268.907 200.839 271.612L186.929 272.355ZM192.252 253.023L196.827 252.779C198.141 251.874 198.754 250.575 198.669 248.88C198.583 247.185 197.883 245.879 196.57 244.96L191.857 245.212L192.252 253.023ZM192.942 266.658L197.702 266.404C198.236 265.973 198.697 265.315 199.085 264.43C199.504 263.542 199.691 262.667 199.647 261.804C199.604 260.942 199.379 260.166 198.973 259.477C198.568 258.788 198.079 258.289 197.507 257.979L192.516 258.246L192.942 266.658ZM217.804 265.33L221.686 265.123C222.326 264.348 222.766 263.583 223.006 262.828C223.275 262.041 223.372 260.909 223.297 259.429L222.214 238.03L228.545 237.692L229.512 256.78C229.591 258.352 229.607 259.587 229.56 260.485C229.542 261.352 229.411 262.424 229.167 263.704C228.757 265.982 227.417 268.185 225.146 270.315L214.887 270.862C212.416 269.048 210.86 266.999 210.22 264.716C209.662 262.861 209.315 260.578 209.178 257.866L208.212 238.777L214.543 238.439L215.626 259.839C215.701 261.318 215.897 262.435 216.213 263.191C216.558 263.914 217.089 264.627 217.804 265.33ZM232.768 237.466L245.061 236.81C247.034 237.353 248.743 238.467 250.188 240.151C251.662 241.803 252.462 243.892 252.59 246.418C252.799 250.547 251.32 253.67 248.153 255.785L253.492 268.801L247.022 269.147L242.497 257.57L240.048 257.701L240.644 269.487L234.406 269.82L232.768 237.466ZM239.287 242.68L239.786 252.524L243.76 252.312C244.278 252.161 244.821 251.607 245.39 250.649C245.989 249.66 246.256 248.533 246.192 247.27C246.129 246.006 245.795 244.912 245.192 243.986C244.62 243.059 244.069 242.548 243.539 242.453L239.287 242.68ZM271.952 267.816L262.155 268.339C259.834 266.424 258.094 264.091 256.936 261.341C255.777 258.592 255.12 255.691 254.966 252.641C254.81 249.56 255.273 246.492 256.354 243.437C257.435 240.382 259.038 237.887 261.165 235.95L272.394 235.351L272.675 240.897L264.079 241.356C263.325 242.323 262.706 243.824 262.222 245.858C261.737 247.861 261.551 249.988 261.665 252.237C261.777 254.456 262.146 256.568 262.773 258.573C263.429 260.547 264.18 261.959 265.026 262.81L269.463 262.573L268.826 250.001L274.927 249.675L275.32 257.44C275.535 261.692 274.413 265.151 271.952 267.816ZM287.169 261.627L291.051 261.42C291.691 260.644 292.131 259.879 292.371 259.125C292.64 258.338 292.738 257.205 292.663 255.726L291.579 234.327L297.911 233.989L298.877 253.077C298.956 254.649 298.973 255.884 298.925 256.782C298.907 257.648 298.776 258.721 298.532 260.001C298.122 262.279 296.782 264.482 294.511 266.611L284.252 267.159C281.781 265.345 280.226 263.296 279.585 261.013C279.028 259.158 278.68 256.875 278.543 254.163L277.577 235.074L283.908 234.736L284.991 256.136C285.066 257.615 285.262 258.732 285.578 259.488C285.923 260.211 286.454 260.924 287.169 261.627ZM303.771 266.117L302.133 233.763L318.724 232.877L319.004 238.424L308.745 238.972L309.136 246.69L318.286 246.202L318.557 251.563L309.407 252.052L309.831 260.418L320.275 259.86L320.546 265.222L303.771 266.117ZM322.487 232.677L334.779 232.02C336.753 232.564 338.462 233.678 339.907 235.362C341.381 237.013 342.181 239.102 342.309 241.629C342.518 245.758 341.039 248.88 337.872 250.996L343.211 264.012L336.741 264.357L332.216 252.781L329.767 252.911L330.363 264.698L324.124 265.031L322.487 232.677ZM329.006 237.89L329.505 247.735L333.479 247.523C333.996 247.371 334.54 246.817 335.109 245.86C335.708 244.87 335.975 243.744 335.911 242.48C335.847 241.217 335.514 240.122 334.911 239.197C334.339 238.27 333.788 237.758 333.258 237.663L329.006 237.89Z" fill="#FF9900"/>
<path d="M186.929 272.355L184.331 272.493L184.463 275.091L187.06 274.953L186.929 272.355ZM185.291 240.001L185.159 237.403L182.562 237.542L182.693 240.139L185.291 240.001ZM198.462 239.298L199.234 236.811L198.792 236.675L198.33 236.7L198.462 239.298ZM202.63 241.995L200.73 243.777L200.73 243.777L202.63 241.995ZM201.591 254.424L200.129 252.277L198.919 253.102L198.993 254.563L201.591 254.424ZM201.6 254.609L199.002 254.748L199.08 256.278L200.456 256.949L201.6 254.609ZM200.839 271.612L200.97 274.21L201.728 274.17L202.346 273.728L200.839 271.612ZM192.252 253.023L189.654 253.161L189.786 255.759L192.384 255.621L192.252 253.023ZM196.827 252.779L196.959 255.377L197.692 255.337L198.298 254.92L196.827 252.779ZM196.57 244.96L198.065 242.827L197.333 242.314L196.439 242.362L196.57 244.96ZM191.857 245.212L191.725 242.614L189.128 242.752L189.259 245.35L191.857 245.212ZM192.942 266.658L190.345 266.796L190.476 269.394L193.074 269.256L192.942 266.658ZM197.702 266.404L197.834 269.002L198.674 268.957L199.33 268.429L197.702 266.404ZM199.085 264.43L196.733 263.325L196.718 263.358L196.703 263.392L199.085 264.43ZM198.973 259.477L201.216 258.152L201.216 258.152L198.973 259.477ZM197.507 257.979L198.75 255.69L198.107 255.342L197.376 255.381L197.507 257.979ZM192.516 258.246L192.385 255.648L189.787 255.786L189.919 258.384L192.516 258.246ZM189.526 272.216L187.888 239.862L182.693 240.139L184.331 272.493L189.526 272.216ZM185.422 242.599L198.593 241.896L198.33 236.7L185.159 237.403L185.422 242.599ZM197.689 241.784C198.743 242.109 199.757 242.739 200.73 243.777L204.529 240.213C203.021 238.603 201.255 237.434 199.234 236.811L197.689 241.784ZM200.73 243.777C201.514 244.613 201.972 245.662 202.043 247.078L207.238 246.8C207.11 244.272 206.227 242.025 204.529 240.213L200.73 243.777ZM202.043 247.078C202.189 249.967 201.359 251.437 200.129 252.277L203.053 256.572C206.241 254.396 207.445 250.875 207.238 246.8L202.043 247.078ZM198.993 254.563L199.002 254.748L204.198 254.471L204.188 254.286L198.993 254.563ZM200.456 256.949C201.548 257.481 202.275 258.138 202.756 258.882C203.239 259.63 203.562 260.609 203.628 261.916L208.824 261.639C208.72 259.588 208.187 257.692 207.128 256.051C206.066 254.406 204.566 253.158 202.744 252.27L200.456 256.949ZM203.628 261.916C203.769 264.689 202.565 267.186 199.331 269.496L202.346 273.728C206.685 270.629 209.073 266.57 208.824 261.639L203.628 261.916ZM200.707 269.014L186.797 269.757L187.06 274.953L200.97 274.21L200.707 269.014ZM192.384 255.621L196.959 255.377L196.696 250.181L192.121 250.425L192.384 255.621ZM198.298 254.92C200.414 253.463 201.394 251.268 201.266 248.741L196.071 249.019C196.115 249.881 195.867 250.285 195.356 250.637L198.298 254.92ZM201.266 248.741C201.143 246.3 200.076 244.234 198.065 242.827L195.076 247.093C195.691 247.524 196.023 248.071 196.071 249.019L201.266 248.741ZM196.439 242.362L191.725 242.614L191.988 247.81L196.702 247.558L196.439 242.362ZM189.259 245.35L189.654 253.161L194.85 252.884L194.454 245.073L189.259 245.35ZM193.074 269.256L197.834 269.002L197.571 263.806L192.811 264.06L193.074 269.256ZM199.33 268.429C200.298 267.649 200.976 266.59 201.467 265.467L196.703 263.392C196.419 264.041 196.175 264.298 196.075 264.379L199.33 268.429ZM201.437 265.534C202.013 264.311 202.313 263.011 202.245 261.666L197.05 261.943C197.069 262.323 196.994 262.773 196.733 263.325L201.437 265.534ZM202.245 261.666C202.182 260.418 201.85 259.23 201.216 258.152L196.731 260.801C196.908 261.101 197.025 261.465 197.05 261.943L202.245 261.666ZM201.216 258.152C200.625 257.15 199.822 256.27 198.75 255.69L196.265 260.268C196.336 260.307 196.51 260.426 196.731 260.801L201.216 258.152ZM197.376 255.381L192.385 255.648L192.648 260.844L197.639 260.577L197.376 255.381ZM189.919 258.384L190.345 266.796L195.54 266.519L195.114 258.107L189.919 258.384ZM217.804 265.33L215.978 267.188L216.793 267.989L217.935 267.928L217.804 265.33ZM221.686 265.123L221.817 267.721L222.96 267.66L223.689 266.777L221.686 265.123ZM223.006 262.828L220.546 261.992L220.536 262.019L220.528 262.046L223.006 262.828ZM222.214 238.03L222.083 235.432L219.485 235.57L219.617 238.168L222.214 238.03ZM228.545 237.692L231.143 237.553L231.012 234.955L228.414 235.094L228.545 237.692ZM229.56 260.485L226.963 260.356L226.961 260.397L226.96 260.439L229.56 260.485ZM229.167 263.704L226.612 263.223L226.61 263.237L226.607 263.25L229.167 263.704ZM225.146 270.315L225.277 272.912L226.227 272.862L226.922 272.21L225.146 270.315ZM214.887 270.862L213.343 272.961L214.091 273.51L215.018 273.46L214.887 270.862ZM210.22 264.716L212.724 264.006L212.717 263.983L212.711 263.961L210.22 264.716ZM208.212 238.777L208.08 236.179L205.483 236.318L205.614 238.916L208.212 238.777ZM214.543 238.439L217.14 238.3L217.009 235.703L214.411 235.841L214.543 238.439ZM216.213 263.191L213.813 264.201L213.838 264.26L213.866 264.318L216.213 263.191ZM217.935 267.928L221.817 267.721L221.554 262.525L217.672 262.733L217.935 267.928ZM223.689 266.777C224.487 265.81 225.12 264.756 225.484 263.611L220.528 262.046C220.412 262.409 220.165 262.885 219.682 263.47L223.689 266.777ZM225.467 263.664C225.896 262.409 225.976 260.883 225.895 259.291L220.7 259.568C220.769 260.934 220.654 261.674 220.546 261.992L225.467 263.664ZM225.895 259.291L224.812 237.891L219.617 238.168L220.7 259.568L225.895 259.291ZM222.346 240.628L228.677 240.29L228.414 235.094L222.083 235.432L222.346 240.628ZM225.948 237.83L226.914 256.919L232.109 256.642L231.143 237.553L225.948 237.83ZM226.914 256.919C226.992 258.457 227.003 259.589 226.963 260.356L232.158 260.615C232.212 259.585 232.191 258.247 232.109 256.642L226.914 256.919ZM226.96 260.439C226.946 261.106 226.841 262.023 226.612 263.223L231.722 264.185C231.981 262.826 232.139 261.597 232.161 260.532L226.96 260.439ZM226.607 263.25C226.326 264.813 225.371 266.542 223.37 268.419L226.922 272.21C229.463 269.828 231.188 267.15 231.727 264.158L226.607 263.25ZM225.014 267.717L214.755 268.264L215.018 273.46L225.277 272.912L225.014 267.717ZM216.43 268.764C214.287 267.19 213.167 265.586 212.724 264.006L207.715 265.425C208.553 268.411 210.545 270.905 213.343 272.961L216.43 268.764ZM212.711 263.961C212.232 262.368 211.906 260.306 211.775 257.727L206.58 258.005C206.724 260.849 207.093 263.354 207.729 265.471L212.711 263.961ZM211.775 257.727L210.809 238.638L205.614 238.916L206.58 258.005L211.775 257.727ZM208.343 241.375L214.674 241.037L214.411 235.841L208.08 236.179L208.343 241.375ZM211.945 238.578L213.029 259.978L218.224 259.7L217.14 238.3L211.945 238.578ZM213.029 259.978C213.108 261.555 213.323 263.03 213.813 264.201L218.612 262.18C218.47 261.841 218.294 261.081 218.224 259.7L213.029 259.978ZM213.866 264.318C214.369 265.372 215.1 266.325 215.978 267.188L219.63 263.473C219.078 262.93 218.747 262.456 218.56 262.064L213.866 264.318ZM232.768 237.466L232.636 234.868L230.039 235.007L230.17 237.605L232.768 237.466ZM245.061 236.81L245.757 234.302L245.351 234.19L244.929 234.212L245.061 236.81ZM250.188 240.151L248.212 241.848L248.229 241.868L248.245 241.887L250.188 240.151ZM248.153 255.785L246.713 253.623L244.938 254.808L245.746 256.779L248.153 255.785ZM253.492 268.801L253.623 271.399L257.291 271.203L255.898 267.808L253.492 268.801ZM247.022 269.147L244.599 270.1L245.281 271.845L247.153 271.745L247.022 269.147ZM242.497 257.57L244.92 256.617L244.238 254.872L242.366 254.972L242.497 257.57ZM240.048 257.701L239.916 255.103L237.319 255.242L237.45 257.84L240.048 257.701ZM240.644 269.487L240.776 272.085L243.373 271.946L243.242 269.348L240.644 269.487ZM234.406 269.82L231.808 269.959L231.94 272.557L234.537 272.418L234.406 269.82ZM239.287 242.68L239.156 240.082L236.558 240.22L236.69 242.818L239.287 242.68ZM239.786 252.524L237.188 252.663L237.32 255.261L239.917 255.122L239.786 252.524ZM243.76 252.312L243.892 254.91L244.193 254.894L244.483 254.809L243.76 252.312ZM245.39 250.649L243.166 249.307L243.161 249.315L243.156 249.324L245.39 250.649ZM245.192 243.986L242.978 245.357L242.995 245.384L243.012 245.411L245.192 243.986ZM243.539 242.453L244.006 239.892L243.709 239.839L243.408 239.855L243.539 242.453ZM232.899 240.064L245.192 239.408L244.929 234.212L232.636 234.868L232.899 240.064ZM244.364 239.318C245.798 239.713 247.074 240.522 248.212 241.848L252.164 238.454C250.413 236.413 248.271 234.994 245.757 234.302L244.364 239.318ZM248.245 241.887C249.27 243.035 249.89 244.534 249.993 246.557L255.188 246.28C255.035 243.249 254.053 240.57 252.13 238.416L248.245 241.887ZM249.993 246.557C250.16 249.866 249.039 252.069 246.713 253.623L249.593 257.948C253.601 255.271 255.438 251.229 255.188 246.28L249.993 246.557ZM245.746 256.779L251.085 269.795L255.898 267.808L250.559 254.792L245.746 256.779ZM253.36 266.203L246.89 266.549L247.153 271.745L253.623 271.399L253.36 266.203ZM249.445 268.194L244.92 256.617L240.074 258.523L244.599 270.1L249.445 268.194ZM242.366 254.972L239.916 255.103L240.179 260.299L242.629 260.168L242.366 254.972ZM237.45 257.84L238.047 269.626L243.242 269.348L242.645 257.562L237.45 257.84ZM240.513 266.889L234.274 267.222L234.537 272.418L240.776 272.085L240.513 266.889ZM237.003 269.682L235.365 237.328L230.17 237.605L231.808 269.959L237.003 269.682ZM236.69 242.818L237.188 252.663L242.383 252.386L241.885 242.541L236.69 242.818ZM239.917 255.122L243.892 254.91L243.629 249.714L239.654 249.926L239.917 255.122ZM244.483 254.809C246.036 254.355 247.022 252.989 247.625 251.975L243.156 249.324C242.936 249.694 242.779 249.885 242.701 249.964C242.666 250 242.67 249.989 242.717 249.958C242.766 249.926 242.873 249.863 243.037 249.815L244.483 254.809ZM247.615 251.992C248.508 250.514 248.878 248.862 248.79 247.131L243.595 247.409C243.635 248.204 243.47 248.805 243.166 249.307L247.615 251.992ZM248.79 247.131C248.706 245.477 248.26 243.924 247.372 242.562L243.012 245.411C243.331 245.9 243.551 246.536 243.595 247.409L248.79 247.131ZM247.407 242.616C246.795 241.624 245.725 240.201 244.006 239.892L243.072 245.013C242.881 244.979 242.743 244.916 242.663 244.872C242.587 244.829 242.56 244.8 242.578 244.817C242.596 244.834 242.643 244.881 242.716 244.974C242.788 245.066 242.876 245.191 242.978 245.357L247.407 242.616ZM243.408 239.855L239.156 240.082L239.419 245.277L243.671 245.051L243.408 239.855ZM271.952 267.816L272.084 270.414L273.142 270.357L273.861 269.578L271.952 267.816ZM262.155 268.339L260.497 270.348L261.276 270.991L262.287 270.937L262.155 268.339ZM256.354 243.437L253.902 242.575L253.902 242.575L256.354 243.437ZM261.165 235.95L261.033 233.352L260.105 233.402L259.416 234.029L261.165 235.95ZM272.394 235.351L274.992 235.212L274.86 232.614L272.263 232.753L272.394 235.351ZM272.675 240.897L272.807 243.495L275.404 243.356L275.273 240.758L272.675 240.897ZM264.079 241.356L263.948 238.758L262.762 238.821L262.03 239.759L264.079 241.356ZM262.222 245.858L264.75 246.464L264.752 246.454L262.222 245.858ZM262.773 258.573L260.29 259.356L260.297 259.378L260.305 259.4L262.773 258.573ZM265.026 262.81L263.18 264.647L263.998 265.469L265.158 265.407L265.026 262.81ZM269.463 262.573L269.594 265.171L272.192 265.032L272.06 262.434L269.463 262.573ZM268.826 250.001L268.695 247.403L266.097 247.542L266.229 250.14L268.826 250.001ZM274.927 249.675L277.524 249.537L277.393 246.939L274.795 247.077L274.927 249.675ZM271.821 265.218L262.024 265.741L262.287 270.937L272.084 270.414L271.821 265.218ZM263.814 266.33C261.812 264.679 260.327 262.686 259.333 260.325L254.538 262.357C255.861 265.497 257.856 268.168 260.497 270.348L263.814 266.33ZM259.333 260.325C258.294 257.86 257.703 255.258 257.564 252.502L252.368 252.78C252.538 256.125 253.26 259.323 254.538 262.357L259.333 260.325ZM257.564 252.502C257.426 249.777 257.832 247.049 258.805 244.299L253.902 242.575C252.713 245.934 252.194 249.342 252.368 252.78L257.564 252.502ZM258.805 244.299C259.761 241.598 261.143 239.483 262.913 237.872L259.416 234.029C256.933 236.29 255.108 239.167 253.902 242.575L258.805 244.299ZM261.296 238.548L272.526 237.949L272.263 232.753L261.033 233.352L261.296 238.548ZM269.797 235.489L270.078 241.036L275.273 240.758L274.992 235.212L269.797 235.489ZM272.544 238.299L263.948 238.758L264.211 243.954L272.807 243.495L272.544 238.299ZM262.03 239.759C260.938 241.16 260.21 243.086 259.692 245.262L264.752 246.454C265.202 244.562 265.713 243.486 266.129 242.953L262.03 239.759ZM259.695 245.252C259.145 247.52 258.942 249.899 259.067 252.376L264.262 252.098C264.16 250.076 264.328 248.202 264.75 246.464L259.695 245.252ZM259.067 252.376C259.19 254.8 259.595 257.13 260.29 259.356L265.256 257.791C264.698 256.006 264.364 254.111 264.262 252.098L259.067 252.376ZM260.305 259.4C261.007 261.514 261.915 263.375 263.18 264.647L266.873 260.972C266.445 260.542 265.851 259.579 265.241 257.746L260.305 259.4ZM265.158 265.407L269.594 265.171L269.331 259.975L264.895 260.212L265.158 265.407ZM272.06 262.434L271.424 249.862L266.229 250.14L266.865 262.711L272.06 262.434ZM268.958 252.599L275.058 252.273L274.795 247.077L268.695 247.403L268.958 252.599ZM272.329 249.814L272.722 257.579L277.917 257.301L277.524 249.537L272.329 249.814ZM272.722 257.579C272.909 261.264 271.945 263.995 270.044 266.054L273.861 269.578C276.88 266.307 278.161 262.121 277.917 257.301L272.722 257.579ZM287.169 261.627L285.343 263.485L286.158 264.286L287.301 264.225L287.169 261.627ZM291.051 261.42L291.182 264.018L292.325 263.957L293.055 263.073L291.051 261.42ZM292.371 259.125L289.911 258.289L289.902 258.316L289.893 258.343L292.371 259.125ZM291.579 234.327L291.448 231.729L288.85 231.867L288.982 234.465L291.579 234.327ZM297.911 233.989L300.508 233.85L300.377 231.252L297.779 231.391L297.911 233.989ZM298.925 256.782L296.328 256.653L296.326 256.694L296.325 256.736L298.925 256.782ZM298.532 260.001L295.978 259.52L295.975 259.534L295.973 259.547L298.532 260.001ZM294.511 266.611L294.643 269.209L295.592 269.159L296.287 268.507L294.511 266.611ZM284.252 267.159L282.709 269.258L283.456 269.807L284.383 269.757L284.252 267.159ZM279.585 261.013L282.089 260.303L282.083 260.28L282.076 260.258L279.585 261.013ZM277.577 235.074L277.445 232.476L274.848 232.615L274.979 235.213L277.577 235.074ZM283.908 234.736L286.506 234.597L286.374 232L283.776 232.138L283.908 234.736ZM285.578 259.488L283.178 260.498L283.203 260.557L283.231 260.615L285.578 259.488ZM287.301 264.225L291.182 264.018L290.919 258.822L287.038 259.029L287.301 264.225ZM293.055 263.073C293.852 262.107 294.485 261.053 294.85 259.908L289.893 258.343C289.777 258.706 289.53 259.182 289.047 259.767L293.055 263.073ZM294.832 259.961C295.261 258.706 295.341 257.18 295.26 255.588L290.065 255.865C290.134 257.231 290.019 257.971 289.911 258.289L294.832 259.961ZM295.26 255.588L294.177 234.188L288.982 234.465L290.065 255.865L295.26 255.588ZM291.711 236.925L298.042 236.587L297.779 231.391L291.448 231.729L291.711 236.925ZM295.313 234.127L296.279 253.216L301.474 252.939L300.508 233.85L295.313 234.127ZM296.279 253.216C296.357 254.754 296.368 255.886 296.328 256.653L301.523 256.912C301.577 255.882 301.556 254.544 301.474 252.939L296.279 253.216ZM296.325 256.736C296.311 257.403 296.207 258.32 295.978 259.52L301.087 260.482C301.346 259.123 301.504 257.894 301.526 256.829L296.325 256.736ZM295.973 259.547C295.691 261.11 294.736 262.839 292.735 264.716L296.287 268.507C298.828 266.125 300.554 263.447 301.092 260.455L295.973 259.547ZM294.38 264.014L284.12 264.561L284.383 269.757L294.643 269.209L294.38 264.014ZM285.795 265.061C283.653 263.487 282.533 261.883 282.089 260.303L277.081 261.722C277.919 264.708 279.91 267.202 282.709 269.258L285.795 265.061ZM282.076 260.258C281.597 258.665 281.271 256.603 281.141 254.024L275.945 254.302C276.089 257.146 276.458 259.65 277.094 261.768L282.076 260.258ZM281.141 254.024L280.174 234.935L274.979 235.213L275.945 254.302L281.141 254.024ZM277.708 237.672L284.039 237.334L283.776 232.138L277.445 232.476L277.708 237.672ZM281.31 234.875L282.394 256.275L287.589 255.997L286.506 234.597L281.31 234.875ZM282.394 256.275C282.474 257.852 282.688 259.327 283.178 260.498L287.977 258.477C287.835 258.138 287.659 257.378 287.589 255.997L282.394 256.275ZM283.231 260.615C283.734 261.669 284.465 262.622 285.343 263.485L288.995 259.77C288.443 259.227 288.113 258.753 287.925 258.361L283.231 260.615ZM303.771 266.117L301.173 266.256L301.305 268.854L303.902 268.715L303.771 266.117ZM302.133 233.763L302.001 231.165L299.404 231.304L299.535 233.902L302.133 233.763ZM318.724 232.877L321.321 232.739L321.19 230.141L318.592 230.28L318.724 232.877ZM319.004 238.424L319.136 241.022L321.733 240.883L321.602 238.285L319.004 238.424ZM308.745 238.972L308.613 236.374L306.016 236.512L306.147 239.11L308.745 238.972ZM309.136 246.69L306.538 246.829L306.67 249.427L309.267 249.288L309.136 246.69ZM318.286 246.202L320.884 246.063L320.752 243.465L318.154 243.604L318.286 246.202ZM318.557 251.563L318.689 254.161L321.286 254.023L321.155 251.425L318.557 251.563ZM309.407 252.052L309.276 249.454L306.678 249.593L306.81 252.19L309.407 252.052ZM309.831 260.418L307.233 260.556L307.365 263.154L309.962 263.016L309.831 260.418ZM320.275 259.86L322.872 259.721L322.741 257.123L320.143 257.262L320.275 259.86ZM320.546 265.222L320.678 267.82L323.275 267.681L323.144 265.083L320.546 265.222ZM306.368 265.978L304.731 233.624L299.535 233.902L301.173 266.256L306.368 265.978ZM302.265 236.361L318.855 235.475L318.592 230.28L302.001 231.165L302.265 236.361ZM316.126 233.016L316.407 238.563L321.602 238.285L321.321 232.739L316.126 233.016ZM318.873 235.826L308.613 236.374L308.876 241.57L319.136 241.022L318.873 235.826ZM306.147 239.11L306.538 246.829L311.733 246.552L311.343 238.833L306.147 239.11ZM309.267 249.288L318.417 248.8L318.154 243.604L309.004 244.092L309.267 249.288ZM315.688 246.34L315.96 251.702L321.155 251.425L320.884 246.063L315.688 246.34ZM318.426 248.965L309.276 249.454L309.539 254.65L318.689 254.161L318.426 248.965ZM306.81 252.19L307.233 260.556L312.428 260.279L312.005 251.913L306.81 252.19ZM309.962 263.016L320.406 262.458L320.143 257.262L309.699 257.82L309.962 263.016ZM317.677 259.999L317.949 265.36L323.144 265.083L322.872 259.721L317.677 259.999ZM320.415 262.624L303.639 263.519L303.902 268.715L320.678 267.82L320.415 262.624ZM322.487 232.677L322.355 230.079L319.758 230.217L319.889 232.815L322.487 232.677ZM334.779 232.02L335.476 229.512L335.069 229.4L334.648 229.422L334.779 232.02ZM339.907 235.362L337.931 237.059L337.947 237.078L337.964 237.097L339.907 235.362ZM337.872 250.996L336.431 248.833L334.657 250.019L335.465 251.989L337.872 250.996ZM343.211 264.012L343.342 266.61L347.01 266.414L345.617 263.018L343.211 264.012ZM336.741 264.357L334.318 265.31L335 267.055L336.872 266.955L336.741 264.357ZM332.216 252.781L334.639 251.828L333.957 250.083L332.084 250.183L332.216 252.781ZM329.767 252.911L329.635 250.313L327.038 250.452L327.169 253.05L329.767 252.911ZM330.363 264.698L330.495 267.295L333.092 267.157L332.961 264.559L330.363 264.698ZM324.124 265.031L321.527 265.169L321.658 267.767L324.256 267.629L324.124 265.031ZM329.006 237.89L328.875 235.292L326.277 235.431L326.409 238.029L329.006 237.89ZM329.505 247.735L326.907 247.873L327.039 250.471L329.636 250.333L329.505 247.735ZM333.479 247.523L333.61 250.121L333.912 250.104L334.202 250.02L333.479 247.523ZM335.109 245.86L332.885 244.518L332.88 244.526L332.875 244.534L335.109 245.86ZM334.911 239.197L332.697 240.568L332.713 240.595L332.731 240.621L334.911 239.197ZM333.258 237.663L333.725 235.102L333.428 235.049L333.126 235.065L333.258 237.663ZM322.618 235.275L334.911 234.618L334.648 229.422L322.355 230.079L322.618 235.275ZM334.083 234.529C335.517 234.924 336.793 235.732 337.931 237.059L341.883 233.664C340.132 231.623 337.99 230.204 335.476 229.512L334.083 234.529ZM337.964 237.097C338.989 238.245 339.609 239.745 339.712 241.768L344.907 241.49C344.753 238.46 343.772 235.781 341.849 233.626L337.964 237.097ZM339.712 241.768C339.879 245.076 338.758 247.279 336.431 248.833L339.312 253.158C343.32 250.481 345.157 246.439 344.907 241.49L339.712 241.768ZM335.465 251.989L340.804 265.005L345.617 263.018L340.278 250.002L335.465 251.989ZM343.079 261.414L336.609 261.759L336.872 266.955L343.342 266.61L343.079 261.414ZM339.163 263.404L334.639 251.828L329.793 253.734L334.318 265.31L339.163 263.404ZM332.084 250.183L329.635 250.313L329.898 255.509L332.347 255.379L332.084 250.183ZM327.169 253.05L327.766 264.836L332.961 264.559L332.364 252.773L327.169 253.05ZM330.232 262.1L323.993 262.433L324.256 267.629L330.495 267.295L330.232 262.1ZM326.722 264.892L325.084 232.538L319.889 232.815L321.527 265.169L326.722 264.892ZM326.409 238.029L326.907 247.873L332.102 247.596L331.604 237.751L326.409 238.029ZM329.636 250.333L333.61 250.121L333.347 244.925L329.373 245.137L329.636 250.333ZM334.202 250.02C335.755 249.566 336.741 248.199 337.344 247.186L332.875 244.534C332.655 244.904 332.498 245.095 332.42 245.174C332.385 245.21 332.389 245.2 332.436 245.168C332.485 245.136 332.592 245.074 332.756 245.026L334.202 250.02ZM337.334 247.202C338.227 245.724 338.597 244.073 338.509 242.342L333.314 242.619C333.354 243.414 333.189 244.016 332.885 244.518L337.334 247.202ZM338.509 242.342C338.425 240.687 337.979 239.134 337.091 237.772L332.731 240.621C333.049 241.11 333.27 241.747 333.314 242.619L338.509 242.342ZM337.125 237.826C336.514 236.834 335.444 235.411 333.725 235.102L332.791 240.224C332.599 240.189 332.461 240.127 332.382 240.082C332.306 240.039 332.279 240.011 332.297 240.028C332.315 240.044 332.362 240.091 332.434 240.184C332.506 240.276 332.594 240.402 332.697 240.568L337.125 237.826ZM333.126 235.065L328.875 235.292L329.138 240.488L333.389 240.261L333.126 235.065Z" fill="#3D3D3D" mask="url(#path-14-outside-2_343_24)"/>
<mask id="path-16-outside-3_343_24" maskUnits="userSpaceOnUse" x="111.508" y="67.5047" width="110.983" height="51.7343" fill="black">
<rect fill="white" x="111.508" y="67.5047" width="110.983" height="51.7343"/>
<path d="M118.131 115.959L115.27 79.3211L134.367 77.7483L134.858 84.0291L122.928 85.0116L123.643 94.1711L134.003 93.3178L134.477 99.3893L124.118 100.243L125.299 115.369L118.131 115.959ZM153.685 76.1573C156.282 77.9451 158.304 80.4651 159.751 83.7172C161.199 86.9692 162.062 90.3748 162.34 93.934C162.615 97.4582 162.301 100.855 161.398 104.125C160.495 107.396 158.877 110.285 156.546 112.795L145.767 113.683C143.076 111.587 141.031 108.999 139.632 105.918C138.233 102.838 137.396 99.5352 137.12 96.011C136.842 92.4519 137.166 88.9486 138.09 85.5012C139.014 82.0537 140.62 79.235 142.906 77.045L153.685 76.1573ZM148.799 107.323L152.566 107.013C153.359 105.929 153.963 104.229 154.379 101.912C154.827 99.557 154.952 97.106 154.753 94.5588C154.554 92.0116 154.071 89.6458 153.304 87.4615C152.533 85.2423 151.673 83.6626 150.722 82.7225L146.902 83.0371C146.109 84.1208 145.487 85.8226 145.037 88.1423C144.618 90.4243 144.508 92.839 144.707 95.3862C144.906 97.9334 145.392 100.334 146.165 102.588C146.97 104.805 147.848 106.383 148.799 107.323ZM182.043 73.8218C184.64 75.6096 186.662 78.1295 188.11 81.3816C189.557 84.6337 190.42 88.0393 190.698 91.5984C190.973 95.1226 190.659 98.5198 189.756 101.79C188.853 105.06 187.236 107.95 184.904 110.46L174.126 111.347C171.434 109.251 169.389 106.663 167.99 103.583C166.591 100.502 165.754 97.1997 165.479 93.6754C165.201 90.1163 165.524 86.6131 166.448 83.1656C167.373 79.7182 168.978 76.8995 171.264 74.7095L182.043 73.8218ZM177.157 104.987L180.924 104.677C181.717 103.593 182.322 101.893 182.738 99.5761C183.186 97.2214 183.31 94.7705 183.111 92.2232C182.912 89.676 182.429 87.3103 181.662 85.1259C180.892 82.9067 180.031 81.327 179.08 80.387L175.26 80.7015C174.467 81.7853 173.846 83.487 173.395 85.8068C172.976 88.0888 172.866 90.5034 173.065 93.0506C173.264 95.5978 173.75 97.9985 174.523 100.253C175.328 102.469 176.206 104.047 177.157 104.987ZM202.847 102.871L207.556 102.484C208.437 101.182 209.066 99.3392 209.441 96.9554C209.851 94.5687 209.967 92.2239 209.787 89.9209C209.359 84.4427 208.018 80.5321 205.764 78.1893L200.95 78.5857L202.847 102.871ZM196.205 109.529L193.344 72.891L208.517 71.6413C213.814 75.6299 216.756 81.3927 217.345 88.9297C217.931 96.4317 216.099 102.869 211.849 108.241L196.205 109.529Z"/>
</mask>
<path d="M118.131 115.959L115.27 79.3211L134.367 77.7483L134.858 84.0291L122.928 85.0116L123.643 94.1711L134.003 93.3178L134.477 99.3893L124.118 100.243L125.299 115.369L118.131 115.959ZM153.685 76.1573C156.282 77.9451 158.304 80.4651 159.751 83.7172C161.199 86.9692 162.062 90.3748 162.34 93.934C162.615 97.4582 162.301 100.855 161.398 104.125C160.495 107.396 158.877 110.285 156.546 112.795L145.767 113.683C143.076 111.587 141.031 108.999 139.632 105.918C138.233 102.838 137.396 99.5352 137.12 96.011C136.842 92.4519 137.166 88.9486 138.09 85.5012C139.014 82.0537 140.62 79.235 142.906 77.045L153.685 76.1573ZM148.799 107.323L152.566 107.013C153.359 105.929 153.963 104.229 154.379 101.912C154.827 99.557 154.952 97.106 154.753 94.5588C154.554 92.0116 154.071 89.6458 153.304 87.4615C152.533 85.2423 151.673 83.6626 150.722 82.7225L146.902 83.0371C146.109 84.1208 145.487 85.8226 145.037 88.1423C144.618 90.4243 144.508 92.839 144.707 95.3862C144.906 97.9334 145.392 100.334 146.165 102.588C146.97 104.805 147.848 106.383 148.799 107.323ZM182.043 73.8218C184.64 75.6096 186.662 78.1295 188.11 81.3816C189.557 84.6337 190.42 88.0393 190.698 91.5984C190.973 95.1226 190.659 98.5198 189.756 101.79C188.853 105.06 187.236 107.95 184.904 110.46L174.126 111.347C171.434 109.251 169.389 106.663 167.99 103.583C166.591 100.502 165.754 97.1997 165.479 93.6754C165.201 90.1163 165.524 86.6131 166.448 83.1656C167.373 79.7182 168.978 76.8995 171.264 74.7095L182.043 73.8218ZM177.157 104.987L180.924 104.677C181.717 103.593 182.322 101.893 182.738 99.5761C183.186 97.2214 183.31 94.7705 183.111 92.2232C182.912 89.676 182.429 87.3103 181.662 85.1259C180.892 82.9067 180.031 81.327 179.08 80.387L175.26 80.7015C174.467 81.7853 173.846 83.487 173.395 85.8068C172.976 88.0888 172.866 90.5034 173.065 93.0506C173.264 95.5978 173.75 97.9985 174.523 100.253C175.328 102.469 176.206 104.047 177.157 104.987ZM202.847 102.871L207.556 102.484C208.437 101.182 209.066 99.3392 209.441 96.9554C209.851 94.5687 209.967 92.2239 209.787 89.9209C209.359 84.4427 208.018 80.5321 205.764 78.1893L200.95 78.5857L202.847 102.871ZM196.205 109.529L193.344 72.891L208.517 71.6413C213.814 75.6299 216.756 81.3927 217.345 88.9297C217.931 96.4317 216.099 102.869 211.849 108.241L196.205 109.529Z" fill="#FF9900"/>
<path d="M118.131 115.959L115.27 79.3211L134.367 77.7483L134.858 84.0291L122.928 85.0116L123.643 94.1711L134.003 93.3178L134.477 99.3893L124.118 100.243L125.299 115.369L118.131 115.959ZM153.685 76.1573C156.282 77.9451 158.304 80.4651 159.751 83.7172C161.199 86.9692 162.062 90.3748 162.34 93.934C162.615 97.4582 162.301 100.855 161.398 104.125C160.495 107.396 158.877 110.285 156.546 112.795L145.767 113.683C143.076 111.587 141.031 108.999 139.632 105.918C138.233 102.838 137.396 99.5352 137.12 96.011C136.842 92.4519 137.166 88.9486 138.09 85.5012C139.014 82.0537 140.62 79.235 142.906 77.045L153.685 76.1573ZM148.799 107.323L152.566 107.013C153.359 105.929 153.963 104.229 154.379 101.912C154.827 99.557 154.952 97.106 154.753 94.5588C154.554 92.0116 154.071 89.6458 153.304 87.4615C152.533 85.2423 151.673 83.6626 150.722 82.7225L146.902 83.0371C146.109 84.1208 145.487 85.8226 145.037 88.1423C144.618 90.4243 144.508 92.839 144.707 95.3862C144.906 97.9334 145.392 100.334 146.165 102.588C146.97 104.805 147.848 106.383 148.799 107.323ZM182.043 73.8218C184.64 75.6096 186.662 78.1295 188.11 81.3816C189.557 84.6337 190.42 88.0393 190.698 91.5984C190.973 95.1226 190.659 98.5198 189.756 101.79C188.853 105.06 187.236 107.95 184.904 110.46L174.126 111.347C171.434 109.251 169.389 106.663 167.99 103.583C166.591 100.502 165.754 97.1997 165.479 93.6754C165.201 90.1163 165.524 86.6131 166.448 83.1656C167.373 79.7182 168.978 76.8995 171.264 74.7095L182.043 73.8218ZM177.157 104.987L180.924 104.677C181.717 103.593 182.322 101.893 182.738 99.5761C183.186 97.2214 183.31 94.7705 183.111 92.2232C182.912 89.676 182.429 87.3103 181.662 85.1259C180.892 82.9067 180.031 81.327 179.08 80.387L175.26 80.7015C174.467 81.7853 173.846 83.487 173.395 85.8068C172.976 88.0888 172.866 90.5034 173.065 93.0506C173.264 95.5978 173.75 97.9985 174.523 100.253C175.328 102.469 176.206 104.047 177.157 104.987ZM202.847 102.871L207.556 102.484C208.437 101.182 209.066 99.3392 209.441 96.9554C209.851 94.5687 209.967 92.2239 209.787 89.9209C209.359 84.4427 208.018 80.5321 205.764 78.1893L200.95 78.5857L202.847 102.871ZM196.205 109.529L193.344 72.891L208.517 71.6413C213.814 75.6299 216.756 81.3927 217.345 88.9297C217.931 96.4317 216.099 102.869 211.849 108.241L196.205 109.529Z" fill="black" fill-opacity="0.2"/>
<path d="M118.131 115.959L115.538 116.173L115.741 118.766L118.333 118.552L118.131 115.959ZM115.27 79.3211L115.067 76.7278L112.474 76.9413L112.677 79.5347L115.27 79.3211ZM134.367 77.7483L136.96 77.5348L136.757 74.9414L134.165 75.1549L134.367 77.7483ZM134.858 84.0291L135.06 86.6224L137.653 86.4089L137.45 83.8156L134.858 84.0291ZM122.928 85.0116L122.726 82.4182L120.133 82.6317L120.336 85.2251L122.928 85.0116ZM123.643 94.1711L121.051 94.3846L121.253 96.9779L123.846 96.7644L123.643 94.1711ZM134.003 93.3178L136.596 93.1043L136.393 90.511L133.801 90.7245L134.003 93.3178ZM134.477 99.3893L134.68 101.983L137.272 101.769L137.07 99.1758L134.477 99.3893ZM124.118 100.243L123.915 97.6491L121.323 97.8627L121.525 100.456L124.118 100.243ZM125.299 115.369L125.501 117.962L128.094 117.749L127.891 115.155L125.299 115.369ZM120.723 115.746L117.862 79.1076L112.677 79.5347L115.538 116.173L120.723 115.746ZM115.472 81.9145L134.57 80.3416L134.165 75.1549L115.067 76.7278L115.472 81.9145ZM131.775 77.9618L132.265 84.2426L137.45 83.8156L136.96 77.5348L131.775 77.9618ZM134.655 81.4357L122.726 82.4182L123.131 87.6049L135.06 86.6224L134.655 81.4357ZM120.336 85.2251L121.051 94.3846L126.236 93.9576L125.521 84.7981L120.336 85.2251ZM123.846 96.7644L134.206 95.9112L133.801 90.7245L123.441 91.5777L123.846 96.7644ZM131.411 93.5314L131.885 99.6028L137.07 99.1758L136.596 93.1043L131.411 93.5314ZM134.275 96.7959L123.915 97.6491L124.32 102.836L134.68 101.983L134.275 96.7959ZM121.525 100.456L122.706 115.582L127.891 115.155L126.71 100.029L121.525 100.456ZM125.096 112.775L117.928 113.366L118.333 118.552L125.501 117.962L125.096 112.775ZM153.685 76.1573L155.165 74.0115L154.404 73.488L153.482 73.5639L153.685 76.1573ZM159.751 83.7172L157.375 84.7842L157.375 84.7842L159.751 83.7172ZM161.398 104.125L163.904 104.809L163.904 104.809L161.398 104.125ZM156.546 112.795L156.748 115.389L157.757 115.306L158.447 114.563L156.546 112.795ZM145.767 113.683L144.165 115.739L144.961 116.359L145.97 116.276L145.767 113.683ZM138.09 85.5012L135.579 84.8367L135.579 84.8367L138.09 85.5012ZM142.906 77.045L142.704 74.4516L141.782 74.5276L141.112 75.1688L142.906 77.045ZM148.799 107.323L146.968 109.178L147.813 110.014L149.001 109.916L148.799 107.323ZM152.566 107.013L152.769 109.606L153.956 109.508L154.662 108.544L152.566 107.013ZM154.379 101.912L151.825 101.435L151.822 101.449L151.82 101.462L154.379 101.912ZM153.304 87.4615L150.847 88.3242L150.85 88.3336L153.304 87.4615ZM150.722 82.7225L152.553 80.8675L151.707 80.0313L150.519 80.1291L150.722 82.7225ZM146.902 83.0371L146.7 80.4437L145.512 80.5416L144.806 81.5055L146.902 83.0371ZM145.037 88.1423L142.484 87.656L142.482 87.6694L142.479 87.6829L145.037 88.1423ZM146.165 102.588L143.705 103.442L143.712 103.464L143.72 103.486L146.165 102.588ZM152.205 78.3031C154.361 79.7875 156.096 81.9104 157.375 84.7842L162.128 82.6501C160.512 79.0198 158.202 76.1028 155.165 74.0115L152.205 78.3031ZM157.375 84.7842C158.703 87.7659 159.492 90.8829 159.747 94.1475L164.932 93.7205C164.631 89.8668 163.695 86.1725 162.128 82.6501L157.375 84.7842ZM159.747 94.1475C160 97.3835 159.711 100.476 158.892 103.442L163.904 104.809C164.891 101.234 165.23 97.5329 164.932 93.7205L159.747 94.1475ZM158.892 103.442C158.101 106.304 156.693 108.823 154.645 111.028L158.447 114.563C161.062 111.748 162.888 108.487 163.904 104.809L158.892 103.442ZM156.343 110.202L145.565 111.09L145.97 116.276L156.748 115.389L156.343 110.202ZM147.37 111.627C145.005 109.785 143.224 107.529 142 104.833L137.264 107.003C138.837 110.468 141.147 113.388 144.165 115.739L147.37 111.627ZM142 104.833C140.731 102.04 139.966 99.0335 139.713 95.7975L134.528 96.2245C134.826 100.037 135.734 103.636 137.264 107.003L142 104.833ZM139.713 95.7975C139.458 92.5329 139.754 89.3265 140.601 86.1657L135.579 84.8367C134.578 88.5707 134.227 92.3709 134.528 96.2245L139.713 95.7975ZM140.601 86.1657C141.418 83.1193 142.802 80.7394 144.7 78.9212L141.112 75.1688C138.438 77.7306 136.611 80.9882 135.579 84.8367L140.601 86.1657ZM143.109 79.6384L153.887 78.7507L153.482 73.5639L142.704 74.4516L143.109 79.6384ZM149.001 109.916L152.769 109.606L152.364 104.419L148.596 104.729L149.001 109.916ZM154.662 108.544C155.805 106.982 156.498 104.816 156.939 102.361L151.82 101.462C151.429 103.641 150.913 104.876 150.47 105.481L154.662 108.544ZM156.934 102.388C157.428 99.7912 157.561 97.1076 157.345 94.3453L152.161 94.7723C152.343 97.1044 152.227 99.3227 151.825 101.435L156.934 102.388ZM157.345 94.3453C157.131 91.596 156.606 89.0066 155.757 86.5893L150.85 88.3336C151.536 90.285 151.977 92.4271 152.161 94.7723L157.345 94.3453ZM155.76 86.5987C154.944 84.2472 153.924 82.2226 152.553 80.8675L148.89 84.5775C149.422 85.1026 150.122 86.2373 150.847 88.3242L155.76 86.5987ZM150.519 80.1291L146.7 80.4437L147.105 85.6305L150.924 85.3159L150.519 80.1291ZM144.806 81.5055C143.674 83.053 142.961 85.204 142.484 87.656L147.589 88.6287C148.014 86.4411 148.544 85.1887 148.998 84.5687L144.806 81.5055ZM142.479 87.6829C142.016 90.2083 141.9 92.8504 142.115 95.5997L147.3 95.1727C147.116 92.8275 147.22 90.6404 147.594 88.6018L142.479 87.6829ZM142.115 95.5997C142.329 98.3497 142.856 100.967 143.705 103.442L148.625 101.735C147.928 99.7014 147.483 97.5171 147.3 95.1727L142.115 95.5997ZM143.72 103.486C144.571 105.829 145.609 107.835 146.968 109.178L150.63 105.468C150.086 104.93 149.368 103.78 148.609 101.69L143.72 103.486ZM182.043 73.8218L183.523 71.6759L182.762 71.1525L181.84 71.2284L182.043 73.8218ZM188.11 81.3816L185.734 82.4487L185.734 82.4487L188.11 81.3816ZM189.756 101.79L192.262 102.473L192.262 102.473L189.756 101.79ZM184.904 110.46L185.106 113.053L186.115 112.97L186.805 112.227L184.904 110.46ZM174.126 111.347L172.523 113.403L173.32 114.024L174.328 113.941L174.126 111.347ZM166.448 83.1656L163.937 82.5011L163.937 82.5011L166.448 83.1656ZM171.264 74.7095L171.062 72.1161L170.14 72.192L169.47 72.8333L171.264 74.7095ZM177.157 104.987L175.326 106.842L176.172 107.678L177.36 107.581L177.157 104.987ZM180.924 104.677L181.127 107.27L182.315 107.173L183.02 106.209L180.924 104.677ZM182.738 99.5761L180.183 99.0997L180.181 99.1131L180.178 99.1264L182.738 99.5761ZM181.662 85.1259L179.205 85.9887L179.208 85.9981L181.662 85.1259ZM179.08 80.387L180.911 78.5319L180.065 77.6958L178.877 77.7936L179.08 80.387ZM175.26 80.7015L175.058 78.1082L173.87 78.206L173.165 79.1699L175.26 80.7015ZM173.395 85.8068L170.842 85.3204L170.84 85.3339L170.837 85.3474L173.395 85.8068ZM174.523 100.253L172.063 101.106L172.071 101.128L172.079 101.15L174.523 100.253ZM180.563 75.9676C182.719 77.4519 184.454 79.5749 185.734 82.4487L190.486 80.3146C188.87 76.6842 186.561 73.7673 183.523 71.6759L180.563 75.9676ZM185.734 82.4487C187.061 85.4304 187.85 88.5473 188.105 91.8119L193.29 91.3849C192.989 87.5313 192.054 83.837 190.486 80.3146L185.734 82.4487ZM188.105 91.8119C188.358 95.0479 188.069 98.1408 187.25 101.106L192.262 102.473C193.249 98.8987 193.588 95.1974 193.29 91.3849L188.105 91.8119ZM187.25 101.106C186.459 103.968 185.051 106.487 183.003 108.692L186.805 112.227C189.42 109.413 191.246 106.152 192.262 102.473L187.25 101.106ZM184.701 107.866L173.923 108.754L174.328 113.941L185.106 113.053L184.701 107.866ZM175.728 109.291C173.364 107.45 171.583 105.194 170.358 102.498L165.622 104.667C167.196 108.132 169.505 111.053 172.523 113.403L175.728 109.291ZM170.358 102.498C169.089 99.704 168.324 96.6979 168.071 93.4619L162.886 93.889C163.184 97.7014 164.093 101.3 165.622 104.667L170.358 102.498ZM168.071 93.4619C167.816 90.1973 168.112 86.991 168.96 83.8301L163.937 82.5011C162.936 86.2351 162.585 90.0354 162.886 93.889L168.071 93.4619ZM168.96 83.8301C169.777 80.7837 171.16 78.4039 173.058 76.5856L169.47 72.8333C166.796 75.3951 164.969 78.6527 163.937 82.5011L168.96 83.8301ZM171.467 77.3028L182.245 76.4151L181.84 71.2284L171.062 72.1161L171.467 77.3028ZM177.36 107.581L181.127 107.27L180.722 102.084L176.955 102.394L177.36 107.581ZM183.02 106.209C184.163 104.646 184.856 102.481 185.297 100.026L180.178 99.1264C179.787 101.305 179.271 102.54 178.828 103.145L183.02 106.209ZM185.292 100.052C185.786 97.4557 185.919 94.772 185.704 92.0097L180.519 92.4368C180.701 94.7689 180.585 96.9871 180.183 99.0997L185.292 100.052ZM185.704 92.0097C185.489 89.2605 184.965 86.671 184.115 84.2538L179.208 85.9981C179.894 87.9495 180.336 90.0916 180.519 92.4368L185.704 92.0097ZM184.119 84.2632C183.303 81.9116 182.282 79.887 180.911 78.5319L177.249 82.242C177.78 82.767 178.481 83.9018 179.205 85.9887L184.119 84.2632ZM178.877 77.7936L175.058 78.1082L175.463 83.2949L179.283 82.9803L178.877 77.7936ZM173.165 79.1699C172.032 80.7174 171.319 82.8685 170.842 85.3204L175.947 86.2931C176.372 84.1056 176.903 82.8531 177.356 82.2331L173.165 79.1699ZM170.837 85.3474C170.374 87.8727 170.258 90.5149 170.473 93.2641L175.658 92.8371C175.475 90.4919 175.578 88.3049 175.952 86.2662L170.837 85.3474ZM170.473 93.2641C170.688 96.0141 171.214 98.6312 172.063 101.106L176.983 99.399C176.286 97.3658 175.841 95.1815 175.658 92.8371L170.473 93.2641ZM172.079 101.15C172.929 103.493 173.968 105.5 175.326 106.842L178.988 103.132C178.444 102.594 177.726 101.445 176.967 99.3547L172.079 101.15ZM202.847 102.871L200.254 103.085L200.457 105.678L203.049 105.465L202.847 102.871ZM207.556 102.484L207.758 105.077L209.004 104.974L209.707 103.937L207.556 102.484ZM209.441 96.9554L206.878 96.5245L206.875 96.5426L206.872 96.5607L209.441 96.9554ZM205.764 78.1893L207.641 76.3804L206.789 75.4948L205.561 75.5959L205.764 78.1893ZM200.95 78.5857L200.748 75.9924L198.155 76.2059L198.358 78.7993L200.95 78.5857ZM196.205 109.529L193.613 109.742L193.815 112.336L196.408 112.122L196.205 109.529ZM193.344 72.891L193.141 70.2976L190.549 70.5111L190.751 73.1045L193.344 72.891ZM208.517 71.6413L210.087 69.5598L209.299 68.9669L208.315 69.048L208.517 71.6413ZM211.849 108.241L212.052 110.834L213.181 110.741L213.886 109.85L211.849 108.241ZM203.049 105.465L207.758 105.077L207.353 99.8903L202.644 100.278L203.049 105.465ZM209.707 103.937C210.888 102.192 211.603 99.9291 212.01 97.3501L206.872 96.5607C206.528 98.7493 205.986 100.171 205.405 101.03L209.707 103.937ZM212.004 97.3862C212.449 94.7968 212.577 92.2354 212.379 89.7074L207.194 90.1344C207.357 92.2123 207.254 94.3406 206.878 96.5245L212.004 97.3862ZM212.379 89.7074C211.934 84.0064 210.513 79.3657 207.641 76.3804L203.887 79.9982C205.523 81.6985 206.784 84.8789 207.194 90.1344L212.379 89.7074ZM205.561 75.5959L200.748 75.9924L201.153 81.1791L205.966 80.7827L205.561 75.5959ZM198.358 78.7993L200.254 103.085L205.439 102.658L203.543 78.3722L198.358 78.7993ZM198.798 109.315L195.936 72.6775L190.751 73.1045L193.613 109.742L198.798 109.315ZM193.546 75.4844L208.72 74.2347L208.315 69.048L193.141 70.2976L193.546 75.4844ZM206.948 73.7229C211.567 77.201 214.213 82.2344 214.753 89.1432L219.938 88.7162C219.3 80.551 216.061 74.0589 210.087 69.5598L206.948 73.7229ZM214.753 89.1432C215.293 96.0618 213.611 101.829 209.813 106.631L213.886 109.85C218.587 103.908 220.569 96.8017 219.938 88.7162L214.753 89.1432ZM211.647 105.647L196.003 106.936L196.408 112.122L212.052 110.834L211.647 105.647Z" fill="#3D3D3D" mask="url(#path-16-outside-3_343_24)"/>
<defs>
<linearGradient id="paint0_linear_343_24" x1="199.356" y1="30.8051" x2="246.932" y2="323.307" gradientUnits="userSpaceOnUse">
<stop stop-color="#FFE0B0"/>
<stop offset="0.0001" stop-color="#121212"/>
<stop offset="1" stop-color="#161513"/>
</linearGradient>
</defs>
</svg>
